<mxfile host="app.diagrams.net" modified="2023-08-18T10:20:34.125Z" agent="Mozilla/5.0 (Windows NT 10.0; Win64; x64) AppleWebKit/537.36 (KHTML, like Gecko) Chrome/115.0.0.0 Safari/537.36" etag="Kvfp79W2SbKOXz3XTPsx" version="21.6.8" type="github">
  <diagram id="R2lEEEUBdFMjLlhIrx00" name="Page-1">
    <mxGraphModel dx="5954" dy="2168" grid="1" gridSize="10" guides="1" tooltips="1" connect="1" arrows="1" fold="1" page="1" pageScale="1" pageWidth="1754" pageHeight="1354" math="0" shadow="0" extFonts="Permanent Marker^https://fonts.googleapis.com/css?family=Permanent+Marker">
      <root>
        <mxCell id="0" />
        <mxCell id="1" parent="0" />
        <mxCell id="-HCXJBuDXDDv5yldLikC-1" value="Users" style="rounded=0;whiteSpace=wrap;html=1;align=center;fontFamily=Verdana;fontSize=19;" vertex="1" parent="1">
          <mxGeometry x="-957.06" y="390" width="67.06" height="30" as="geometry" />
        </mxCell>
        <mxCell id="-HCXJBuDXDDv5yldLikC-7" value="" style="endArrow=classic;html=1;rounded=0;exitX=1;exitY=0.75;exitDx=0;exitDy=0;" edge="1" parent="1" source="-HCXJBuDXDDv5yldLikC-1" target="-HCXJBuDXDDv5yldLikC-16">
          <mxGeometry width="50" height="50" relative="1" as="geometry">
            <mxPoint x="-897.06" y="390" as="sourcePoint" />
            <mxPoint x="-867.06" y="360" as="targetPoint" />
          </mxGeometry>
        </mxCell>
        <mxCell id="-HCXJBuDXDDv5yldLikC-10" value="" style="endArrow=classic;html=1;rounded=0;exitX=1;exitY=0;exitDx=0;exitDy=0;" edge="1" parent="1" source="-HCXJBuDXDDv5yldLikC-1" target="-HCXJBuDXDDv5yldLikC-12">
          <mxGeometry width="50" height="50" relative="1" as="geometry">
            <mxPoint x="-907.06" y="390" as="sourcePoint" />
            <mxPoint x="-897.06" y="340" as="targetPoint" />
          </mxGeometry>
        </mxCell>
        <mxCell id="-HCXJBuDXDDv5yldLikC-11" value="" style="endArrow=classic;html=1;rounded=0;exitX=0.5;exitY=0;exitDx=0;exitDy=0;" edge="1" parent="1" source="-HCXJBuDXDDv5yldLikC-1" target="-HCXJBuDXDDv5yldLikC-18">
          <mxGeometry width="50" height="50" relative="1" as="geometry">
            <mxPoint x="-942.06" y="390" as="sourcePoint" />
            <mxPoint x="-957.06" y="340" as="targetPoint" />
          </mxGeometry>
        </mxCell>
        <mxCell id="-HCXJBuDXDDv5yldLikC-12" value="password" style="ellipse;whiteSpace=wrap;html=1;spacing=1;" vertex="1" parent="1">
          <mxGeometry x="-877.06" y="310" width="60" height="40" as="geometry" />
        </mxCell>
        <mxCell id="-HCXJBuDXDDv5yldLikC-16" value="role_id" style="ellipse;whiteSpace=wrap;html=1;fontColor=#2b00ff;" vertex="1" parent="1">
          <mxGeometry x="-860" y="430" width="60" height="40" as="geometry" />
        </mxCell>
        <mxCell id="-HCXJBuDXDDv5yldLikC-17" value="" style="endArrow=classic;html=1;rounded=0;exitX=0;exitY=1;exitDx=0;exitDy=0;" edge="1" parent="1" source="-HCXJBuDXDDv5yldLikC-1" target="-HCXJBuDXDDv5yldLikC-28">
          <mxGeometry width="50" height="50" relative="1" as="geometry">
            <mxPoint x="-967.06" y="390" as="sourcePoint" />
            <mxPoint x="-982.9423529411765" y="452.3529411764707" as="targetPoint" />
          </mxGeometry>
        </mxCell>
        <mxCell id="-HCXJBuDXDDv5yldLikC-18" value="username" style="ellipse;whiteSpace=wrap;html=1;" vertex="1" parent="1">
          <mxGeometry x="-967.06" y="310" width="60" height="40" as="geometry" />
        </mxCell>
        <mxCell id="-HCXJBuDXDDv5yldLikC-23" value="" style="endArrow=classic;html=1;rounded=0;exitX=0.5;exitY=1;exitDx=0;exitDy=0;" edge="1" parent="1" source="-HCXJBuDXDDv5yldLikC-1" target="-HCXJBuDXDDv5yldLikC-24">
          <mxGeometry width="50" height="50" relative="1" as="geometry">
            <mxPoint x="-947.06" y="400" as="sourcePoint" />
            <mxPoint x="-897.06" y="470" as="targetPoint" />
          </mxGeometry>
        </mxCell>
        <mxCell id="-HCXJBuDXDDv5yldLikC-24" value="active_status" style="ellipse;whiteSpace=wrap;html=1;" vertex="1" parent="1">
          <mxGeometry x="-927.06" y="460" width="74.12" height="40" as="geometry" />
        </mxCell>
        <mxCell id="-HCXJBuDXDDv5yldLikC-28" value="Uid" style="ellipse;whiteSpace=wrap;html=1;fontStyle=4;fontColor=#e91616;" vertex="1" parent="1">
          <mxGeometry x="-1054.12" y="445" width="54.12" height="40" as="geometry" />
        </mxCell>
        <mxCell id="-HCXJBuDXDDv5yldLikC-33" value="Roles" style="rounded=0;whiteSpace=wrap;html=1;fontSize=16;" vertex="1" parent="1">
          <mxGeometry x="-927.06" y="170" width="60" height="30" as="geometry" />
        </mxCell>
        <mxCell id="-HCXJBuDXDDv5yldLikC-37" value="" style="rhombus;whiteSpace=wrap;html=1;rotation=0;" vertex="1" parent="1">
          <mxGeometry x="-932.06" y="240" width="72.06" height="50" as="geometry" />
        </mxCell>
        <mxCell id="-HCXJBuDXDDv5yldLikC-38" value="" style="endArrow=none;html=1;rounded=0;exitX=0.5;exitY=0;exitDx=0;exitDy=0;entryX=0.5;entryY=1;entryDx=0;entryDy=0;" edge="1" parent="1" source="-HCXJBuDXDDv5yldLikC-37" target="-HCXJBuDXDDv5yldLikC-33">
          <mxGeometry width="50" height="50" relative="1" as="geometry">
            <mxPoint x="-947.06" y="250" as="sourcePoint" />
            <mxPoint x="-897.06" y="200" as="targetPoint" />
          </mxGeometry>
        </mxCell>
        <mxCell id="-HCXJBuDXDDv5yldLikC-39" value="" style="endArrow=none;html=1;rounded=0;exitX=0.885;exitY=-0.006;exitDx=0;exitDy=0;exitPerimeter=0;" edge="1" parent="1" source="-HCXJBuDXDDv5yldLikC-1">
          <mxGeometry width="50" height="50" relative="1" as="geometry">
            <mxPoint x="-897" y="380" as="sourcePoint" />
            <mxPoint x="-897.06" y="290" as="targetPoint" />
          </mxGeometry>
        </mxCell>
        <mxCell id="-HCXJBuDXDDv5yldLikC-40" value="1" style="text;strokeColor=none;align=center;fillColor=none;html=1;verticalAlign=middle;whiteSpace=wrap;rounded=0;" vertex="1" parent="1">
          <mxGeometry x="-920" y="220" width="60" height="30" as="geometry" />
        </mxCell>
        <mxCell id="-HCXJBuDXDDv5yldLikC-43" value="" style="endArrow=classic;html=1;rounded=0;" edge="1" parent="1" target="-HCXJBuDXDDv5yldLikC-45">
          <mxGeometry width="50" height="50" relative="1" as="geometry">
            <mxPoint x="-870" y="170" as="sourcePoint" />
            <mxPoint x="-830" y="140" as="targetPoint" />
          </mxGeometry>
        </mxCell>
        <mxCell id="-HCXJBuDXDDv5yldLikC-44" value="" style="endArrow=classic;html=1;rounded=0;" edge="1" parent="1" target="-HCXJBuDXDDv5yldLikC-46">
          <mxGeometry width="50" height="50" relative="1" as="geometry">
            <mxPoint x="-927.06" y="170" as="sourcePoint" />
            <mxPoint x="-950" y="130" as="targetPoint" />
          </mxGeometry>
        </mxCell>
        <mxCell id="-HCXJBuDXDDv5yldLikC-45" value="role" style="ellipse;whiteSpace=wrap;html=1;" vertex="1" parent="1">
          <mxGeometry x="-852.94" y="110" width="60" height="40" as="geometry" />
        </mxCell>
        <mxCell id="-HCXJBuDXDDv5yldLikC-46" value="Role_id" style="ellipse;whiteSpace=wrap;html=1;fontStyle=4;fontColor=#ff0000;" vertex="1" parent="1">
          <mxGeometry x="-1008.8199999999999" y="110" width="60" height="40" as="geometry" />
        </mxCell>
        <mxCell id="-HCXJBuDXDDv5yldLikC-47" value="Membership&lt;br style=&quot;font-size: 14px;&quot;&gt;Payment&amp;nbsp;" style="rounded=0;whiteSpace=wrap;html=1;fontSize=14;" vertex="1" parent="1">
          <mxGeometry x="-1254.12" y="225" width="80" height="40" as="geometry" />
        </mxCell>
        <mxCell id="-HCXJBuDXDDv5yldLikC-49" value="Manages&amp;nbsp;" style="rhombus;whiteSpace=wrap;html=1;" vertex="1" parent="1">
          <mxGeometry x="-1097.06" y="220" width="70" height="50" as="geometry" />
        </mxCell>
        <mxCell id="-HCXJBuDXDDv5yldLikC-51" value="" style="endArrow=none;html=1;rounded=0;entryX=0;entryY=0.5;entryDx=0;entryDy=0;exitX=1;exitY=0.5;exitDx=0;exitDy=0;" edge="1" parent="1" source="-HCXJBuDXDDv5yldLikC-47" target="-HCXJBuDXDDv5yldLikC-49">
          <mxGeometry width="50" height="50" relative="1" as="geometry">
            <mxPoint x="-1170" y="275" as="sourcePoint" />
            <mxPoint x="-1120" y="220" as="targetPoint" />
          </mxGeometry>
        </mxCell>
        <mxCell id="-HCXJBuDXDDv5yldLikC-53" value="" style="endArrow=none;html=1;rounded=0;entryX=0;entryY=0;entryDx=0;entryDy=0;exitX=0.555;exitY=1.015;exitDx=0;exitDy=0;exitPerimeter=0;" edge="1" parent="1" source="-HCXJBuDXDDv5yldLikC-55">
          <mxGeometry width="50" height="50" relative="1" as="geometry">
            <mxPoint x="-1030" y="280" as="sourcePoint" />
            <mxPoint x="-957.06" y="395" as="targetPoint" />
            <Array as="points">
              <mxPoint x="-1000" y="245" />
              <mxPoint x="-1000" y="395" />
            </Array>
          </mxGeometry>
        </mxCell>
        <mxCell id="-HCXJBuDXDDv5yldLikC-54" value="M" style="text;strokeColor=none;align=center;fillColor=none;html=1;verticalAlign=middle;whiteSpace=wrap;rounded=0;labelBackgroundColor=default;" vertex="1" parent="1">
          <mxGeometry x="-1125.88" y="217.5" width="60" height="30" as="geometry" />
        </mxCell>
        <mxCell id="-HCXJBuDXDDv5yldLikC-55" value="1" style="text;strokeColor=none;align=center;fillColor=none;html=1;verticalAlign=middle;whiteSpace=wrap;rounded=0;" vertex="1" parent="1">
          <mxGeometry x="-1065.88" y="215" width="60" height="30" as="geometry" />
        </mxCell>
        <mxCell id="-HCXJBuDXDDv5yldLikC-56" value="" style="endArrow=classic;html=1;rounded=0;exitX=0.5;exitY=0;exitDx=0;exitDy=0;" edge="1" parent="1" source="-HCXJBuDXDDv5yldLikC-47" target="-HCXJBuDXDDv5yldLikC-65">
          <mxGeometry width="50" height="50" relative="1" as="geometry">
            <mxPoint x="-1170" y="250" as="sourcePoint" />
            <mxPoint x="-1280" y="180" as="targetPoint" />
          </mxGeometry>
        </mxCell>
        <mxCell id="-HCXJBuDXDDv5yldLikC-57" value="" style="endArrow=classic;html=1;rounded=0;exitX=0;exitY=1;exitDx=0;exitDy=0;" edge="1" parent="1" source="-HCXJBuDXDDv5yldLikC-47" target="-HCXJBuDXDDv5yldLikC-69">
          <mxGeometry width="50" height="50" relative="1" as="geometry">
            <mxPoint x="-1300" y="300" as="sourcePoint" />
            <mxPoint x="-1280" y="320" as="targetPoint" />
          </mxGeometry>
        </mxCell>
        <mxCell id="-HCXJBuDXDDv5yldLikC-58" value="" style="endArrow=classic;html=1;rounded=0;exitX=0;exitY=0;exitDx=0;exitDy=0;" edge="1" parent="1" source="-HCXJBuDXDDv5yldLikC-47" target="-HCXJBuDXDDv5yldLikC-66">
          <mxGeometry width="50" height="50" relative="1" as="geometry">
            <mxPoint x="-1300" y="300" as="sourcePoint" />
            <mxPoint x="-1320" y="190" as="targetPoint" />
          </mxGeometry>
        </mxCell>
        <mxCell id="-HCXJBuDXDDv5yldLikC-59" value="" style="endArrow=classic;html=1;rounded=0;exitX=0.5;exitY=1;exitDx=0;exitDy=0;" edge="1" parent="1" source="-HCXJBuDXDDv5yldLikC-47" target="-HCXJBuDXDDv5yldLikC-68">
          <mxGeometry width="50" height="50" relative="1" as="geometry">
            <mxPoint x="-1230" y="300" as="sourcePoint" />
            <mxPoint x="-1220" y="340" as="targetPoint" />
          </mxGeometry>
        </mxCell>
        <mxCell id="-HCXJBuDXDDv5yldLikC-60" value="" style="endArrow=classic;html=1;rounded=0;exitX=1;exitY=0;exitDx=0;exitDy=0;" edge="1" parent="1" source="-HCXJBuDXDDv5yldLikC-47" target="-HCXJBuDXDDv5yldLikC-64">
          <mxGeometry width="50" height="50" relative="1" as="geometry">
            <mxPoint x="-1300" y="300" as="sourcePoint" />
            <mxPoint x="-1150" y="190" as="targetPoint" />
          </mxGeometry>
        </mxCell>
        <mxCell id="-HCXJBuDXDDv5yldLikC-61" value="" style="endArrow=classic;html=1;rounded=0;exitX=0;exitY=0.25;exitDx=0;exitDy=0;" edge="1" parent="1" source="-HCXJBuDXDDv5yldLikC-47" target="-HCXJBuDXDDv5yldLikC-70">
          <mxGeometry width="50" height="50" relative="1" as="geometry">
            <mxPoint x="-1250" y="260" as="sourcePoint" />
            <mxPoint x="-1320" y="230" as="targetPoint" />
          </mxGeometry>
        </mxCell>
        <mxCell id="-HCXJBuDXDDv5yldLikC-62" value="" style="endArrow=classic;html=1;rounded=0;exitX=0.902;exitY=1.027;exitDx=0;exitDy=0;exitPerimeter=0;" edge="1" parent="1" source="-HCXJBuDXDDv5yldLikC-47" target="-HCXJBuDXDDv5yldLikC-67">
          <mxGeometry width="50" height="50" relative="1" as="geometry">
            <mxPoint x="-1300" y="300" as="sourcePoint" />
            <mxPoint x="-1150" y="320" as="targetPoint" />
          </mxGeometry>
        </mxCell>
        <mxCell id="-HCXJBuDXDDv5yldLikC-64" value="id" style="ellipse;whiteSpace=wrap;html=1;fontColor=#ff0505;fontStyle=4" vertex="1" parent="1">
          <mxGeometry x="-1150" y="165" width="60" height="40" as="geometry" />
        </mxCell>
        <mxCell id="-HCXJBuDXDDv5yldLikC-65" value="user_id" style="ellipse;whiteSpace=wrap;html=1;fontColor=#0066CC;" vertex="1" parent="1">
          <mxGeometry x="-1215.88" y="140" width="60" height="40" as="geometry" />
        </mxCell>
        <mxCell id="-HCXJBuDXDDv5yldLikC-66" value="plan_id" style="ellipse;whiteSpace=wrap;html=1;fontColor=#0066CC;" vertex="1" parent="1">
          <mxGeometry x="-1290" y="130" width="60" height="40" as="geometry" />
        </mxCell>
        <mxCell id="-HCXJBuDXDDv5yldLikC-67" value="transaction&lt;br&gt;_id&amp;nbsp;" style="ellipse;whiteSpace=wrap;html=1;" vertex="1" parent="1">
          <mxGeometry x="-1170.76" y="310" width="80" height="40" as="geometry" />
        </mxCell>
        <mxCell id="-HCXJBuDXDDv5yldLikC-68" value="expiry&lt;br&gt;_date&amp;nbsp;" style="ellipse;whiteSpace=wrap;html=1;" vertex="1" parent="1">
          <mxGeometry x="-1235.88" y="320" width="60" height="40" as="geometry" />
        </mxCell>
        <mxCell id="-HCXJBuDXDDv5yldLikC-69" value="purchase&lt;br&gt;_date&amp;nbsp;" style="ellipse;whiteSpace=wrap;html=1;" vertex="1" parent="1">
          <mxGeometry x="-1300" y="300" width="60" height="40" as="geometry" />
        </mxCell>
        <mxCell id="-HCXJBuDXDDv5yldLikC-70" value="amount" style="ellipse;whiteSpace=wrap;html=1;" vertex="1" parent="1">
          <mxGeometry x="-1360" y="160" width="60" height="40" as="geometry" />
        </mxCell>
        <mxCell id="-HCXJBuDXDDv5yldLikC-71" value="Plans" style="rounded=0;whiteSpace=wrap;html=1;" vertex="1" parent="1">
          <mxGeometry x="-1532.94" y="205" width="60" height="30" as="geometry" />
        </mxCell>
        <mxCell id="-HCXJBuDXDDv5yldLikC-73" value="" style="rhombus;whiteSpace=wrap;html=1;" vertex="1" parent="1">
          <mxGeometry x="-1420" y="247.5" width="60" height="45" as="geometry" />
        </mxCell>
        <mxCell id="-HCXJBuDXDDv5yldLikC-74" value="" style="endArrow=none;html=1;rounded=0;exitX=1;exitY=0.5;exitDx=0;exitDy=0;" edge="1" parent="1" source="-HCXJBuDXDDv5yldLikC-71">
          <mxGeometry width="50" height="50" relative="1" as="geometry">
            <mxPoint x="-1470" y="320" as="sourcePoint" />
            <mxPoint x="-1420" y="270" as="targetPoint" />
          </mxGeometry>
        </mxCell>
        <mxCell id="-HCXJBuDXDDv5yldLikC-75" value="" style="endArrow=none;html=1;rounded=0;entryX=1;entryY=0.5;entryDx=0;entryDy=0;exitX=0;exitY=0.5;exitDx=0;exitDy=0;" edge="1" parent="1" source="-HCXJBuDXDDv5yldLikC-47" target="-HCXJBuDXDDv5yldLikC-73">
          <mxGeometry width="50" height="50" relative="1" as="geometry">
            <mxPoint x="-1350" y="390" as="sourcePoint" />
            <mxPoint x="-1300" y="340" as="targetPoint" />
          </mxGeometry>
        </mxCell>
        <mxCell id="-HCXJBuDXDDv5yldLikC-76" value="M" style="text;strokeColor=none;align=center;fillColor=none;html=1;verticalAlign=middle;whiteSpace=wrap;rounded=0;" vertex="1" parent="1">
          <mxGeometry x="-1380" y="247.5" width="60" height="30" as="geometry" />
        </mxCell>
        <mxCell id="-HCXJBuDXDDv5yldLikC-77" value="1" style="text;strokeColor=none;align=center;fillColor=none;html=1;verticalAlign=middle;whiteSpace=wrap;rounded=0;" vertex="1" parent="1">
          <mxGeometry x="-1460" y="247.5" width="60" height="30" as="geometry" />
        </mxCell>
        <mxCell id="-HCXJBuDXDDv5yldLikC-78" value="" style="endArrow=classic;html=1;rounded=0;exitX=1;exitY=0;exitDx=0;exitDy=0;" edge="1" parent="1" source="-HCXJBuDXDDv5yldLikC-71" target="-HCXJBuDXDDv5yldLikC-79">
          <mxGeometry width="50" height="50" relative="1" as="geometry">
            <mxPoint x="-1480" y="255" as="sourcePoint" />
            <mxPoint x="-1430" y="205" as="targetPoint" />
          </mxGeometry>
        </mxCell>
        <mxCell id="-HCXJBuDXDDv5yldLikC-79" value="price" style="ellipse;whiteSpace=wrap;html=1;" vertex="1" parent="1">
          <mxGeometry x="-1490.88" y="130" width="60" height="40" as="geometry" />
        </mxCell>
        <mxCell id="-HCXJBuDXDDv5yldLikC-80" value="" style="endArrow=classic;html=1;rounded=0;exitX=0;exitY=0;exitDx=0;exitDy=0;" edge="1" parent="1" source="-HCXJBuDXDDv5yldLikC-71" target="-HCXJBuDXDDv5yldLikC-81">
          <mxGeometry width="50" height="50" relative="1" as="geometry">
            <mxPoint x="-1500" y="250" as="sourcePoint" />
            <mxPoint x="-1530" y="220" as="targetPoint" />
          </mxGeometry>
        </mxCell>
        <mxCell id="-HCXJBuDXDDv5yldLikC-81" value="Plan&lt;br&gt;_Name" style="ellipse;whiteSpace=wrap;html=1;" vertex="1" parent="1">
          <mxGeometry x="-1600.76" y="140" width="60" height="40" as="geometry" />
        </mxCell>
        <mxCell id="-HCXJBuDXDDv5yldLikC-82" value="" style="endArrow=classic;html=1;rounded=0;exitX=-0.04;exitY=0.995;exitDx=0;exitDy=0;exitPerimeter=0;" edge="1" parent="1" source="-HCXJBuDXDDv5yldLikC-71" target="-HCXJBuDXDDv5yldLikC-87">
          <mxGeometry width="50" height="50" relative="1" as="geometry">
            <mxPoint x="-1390" y="350" as="sourcePoint" />
            <mxPoint x="-1630.7618931361608" y="220" as="targetPoint" />
          </mxGeometry>
        </mxCell>
        <mxCell id="-HCXJBuDXDDv5yldLikC-84" value="" style="endArrow=classic;html=1;rounded=0;exitX=0.672;exitY=0.998;exitDx=0;exitDy=0;exitPerimeter=0;" edge="1" parent="1" source="-HCXJBuDXDDv5yldLikC-71" target="-HCXJBuDXDDv5yldLikC-85">
          <mxGeometry width="50" height="50" relative="1" as="geometry">
            <mxPoint x="-1400" y="350" as="sourcePoint" />
            <mxPoint x="-1500" y="330" as="targetPoint" />
          </mxGeometry>
        </mxCell>
        <mxCell id="-HCXJBuDXDDv5yldLikC-85" value="Duration&amp;nbsp;" style="ellipse;whiteSpace=wrap;html=1;" vertex="1" parent="1">
          <mxGeometry x="-1535" y="290" width="70" height="40" as="geometry" />
        </mxCell>
        <mxCell id="-HCXJBuDXDDv5yldLikC-87" value="Id" style="ellipse;whiteSpace=wrap;html=1;fontColor=#ff0000;fontStyle=4" vertex="1" parent="1">
          <mxGeometry x="-1629.24" y="252.5" width="59.24" height="40" as="geometry" />
        </mxCell>
        <mxCell id="-HCXJBuDXDDv5yldLikC-90" value="Construction&lt;br style=&quot;font-size: 12px;&quot;&gt;Company&#39;s&amp;nbsp;" style="rounded=0;whiteSpace=wrap;html=1;align=center;fontFamily=Verdana;fontSize=12;" vertex="1" parent="1">
          <mxGeometry x="-634.12" y="190" width="94.12" height="30" as="geometry" />
        </mxCell>
        <mxCell id="-HCXJBuDXDDv5yldLikC-91" value="" style="endArrow=classic;html=1;rounded=0;exitX=1;exitY=0.75;exitDx=0;exitDy=0;" edge="1" parent="1" source="-HCXJBuDXDDv5yldLikC-90" target="-HCXJBuDXDDv5yldLikC-95">
          <mxGeometry width="50" height="50" relative="1" as="geometry">
            <mxPoint x="-574.12" y="190" as="sourcePoint" />
            <mxPoint x="-544.12" y="160" as="targetPoint" />
          </mxGeometry>
        </mxCell>
        <mxCell id="-HCXJBuDXDDv5yldLikC-92" value="" style="endArrow=classic;html=1;rounded=0;exitX=1;exitY=0;exitDx=0;exitDy=0;" edge="1" parent="1" source="-HCXJBuDXDDv5yldLikC-90" target="-HCXJBuDXDDv5yldLikC-94">
          <mxGeometry width="50" height="50" relative="1" as="geometry">
            <mxPoint x="-584.12" y="190" as="sourcePoint" />
            <mxPoint x="-574.12" y="140" as="targetPoint" />
          </mxGeometry>
        </mxCell>
        <mxCell id="-HCXJBuDXDDv5yldLikC-93" value="" style="endArrow=classic;html=1;rounded=0;exitX=0.5;exitY=0;exitDx=0;exitDy=0;" edge="1" parent="1" source="-HCXJBuDXDDv5yldLikC-90" target="-HCXJBuDXDDv5yldLikC-97">
          <mxGeometry width="50" height="50" relative="1" as="geometry">
            <mxPoint x="-619.12" y="190" as="sourcePoint" />
            <mxPoint x="-634.12" y="140" as="targetPoint" />
          </mxGeometry>
        </mxCell>
        <mxCell id="-HCXJBuDXDDv5yldLikC-94" value="email" style="ellipse;whiteSpace=wrap;html=1;spacing=1;" vertex="1" parent="1">
          <mxGeometry x="-554.12" y="130" width="60" height="40" as="geometry" />
        </mxCell>
        <mxCell id="-HCXJBuDXDDv5yldLikC-95" value="user_id" style="ellipse;whiteSpace=wrap;html=1;fontColor=#2b00ff;" vertex="1" parent="1">
          <mxGeometry x="-534.12" y="210" width="60" height="40" as="geometry" />
        </mxCell>
        <mxCell id="-HCXJBuDXDDv5yldLikC-96" value="" style="endArrow=classic;html=1;rounded=0;exitX=0;exitY=1;exitDx=0;exitDy=0;" edge="1" parent="1" source="-HCXJBuDXDDv5yldLikC-90" target="-HCXJBuDXDDv5yldLikC-100">
          <mxGeometry width="50" height="50" relative="1" as="geometry">
            <mxPoint x="-644.12" y="190" as="sourcePoint" />
            <mxPoint x="-660.0023529411766" y="252.35294117647072" as="targetPoint" />
          </mxGeometry>
        </mxCell>
        <mxCell id="-HCXJBuDXDDv5yldLikC-97" value="company&amp;nbsp;&lt;br&gt;name" style="ellipse;whiteSpace=wrap;html=1;" vertex="1" parent="1">
          <mxGeometry x="-644.12" y="110" width="60" height="40" as="geometry" />
        </mxCell>
        <mxCell id="-HCXJBuDXDDv5yldLikC-98" value="" style="endArrow=classic;html=1;rounded=0;exitX=0.5;exitY=1;exitDx=0;exitDy=0;" edge="1" parent="1" source="-HCXJBuDXDDv5yldLikC-90" target="-HCXJBuDXDDv5yldLikC-99">
          <mxGeometry width="50" height="50" relative="1" as="geometry">
            <mxPoint x="-624.12" y="200" as="sourcePoint" />
            <mxPoint x="-574.12" y="270" as="targetPoint" />
          </mxGeometry>
        </mxCell>
        <mxCell id="-HCXJBuDXDDv5yldLikC-99" value="contact&lt;br&gt;_Number" style="ellipse;whiteSpace=wrap;html=1;" vertex="1" parent="1">
          <mxGeometry x="-604.12" y="260" width="74.12" height="40" as="geometry" />
        </mxCell>
        <mxCell id="-HCXJBuDXDDv5yldLikC-100" value="id" style="ellipse;whiteSpace=wrap;html=1;fontStyle=4;fontColor=#e91616;" vertex="1" parent="1">
          <mxGeometry x="-680" y="260" width="54.12" height="40" as="geometry" />
        </mxCell>
        <mxCell id="-HCXJBuDXDDv5yldLikC-101" value="Labours" style="rounded=0;whiteSpace=wrap;html=1;align=center;fontFamily=Verdana;fontSize=12;" vertex="1" parent="1">
          <mxGeometry x="-318.25" y="480" width="94.12" height="30" as="geometry" />
        </mxCell>
        <mxCell id="-HCXJBuDXDDv5yldLikC-102" value="" style="endArrow=classic;html=1;rounded=0;exitX=1;exitY=0.75;exitDx=0;exitDy=0;" edge="1" parent="1" source="-HCXJBuDXDDv5yldLikC-101" target="-HCXJBuDXDDv5yldLikC-106">
          <mxGeometry width="50" height="50" relative="1" as="geometry">
            <mxPoint x="-258.25" y="480" as="sourcePoint" />
            <mxPoint x="-228.25" y="450" as="targetPoint" />
          </mxGeometry>
        </mxCell>
        <mxCell id="-HCXJBuDXDDv5yldLikC-103" value="" style="endArrow=classic;html=1;rounded=0;exitX=1;exitY=0;exitDx=0;exitDy=0;" edge="1" parent="1" source="-HCXJBuDXDDv5yldLikC-101" target="-HCXJBuDXDDv5yldLikC-105">
          <mxGeometry width="50" height="50" relative="1" as="geometry">
            <mxPoint x="-268.25" y="480" as="sourcePoint" />
            <mxPoint x="-258.25" y="430" as="targetPoint" />
          </mxGeometry>
        </mxCell>
        <mxCell id="-HCXJBuDXDDv5yldLikC-104" value="" style="endArrow=classic;html=1;rounded=0;exitX=0.5;exitY=0;exitDx=0;exitDy=0;" edge="1" parent="1" source="-HCXJBuDXDDv5yldLikC-101" target="-HCXJBuDXDDv5yldLikC-108">
          <mxGeometry width="50" height="50" relative="1" as="geometry">
            <mxPoint x="-303.25" y="480" as="sourcePoint" />
            <mxPoint x="-318.25" y="430" as="targetPoint" />
          </mxGeometry>
        </mxCell>
        <mxCell id="-HCXJBuDXDDv5yldLikC-105" value="email" style="ellipse;whiteSpace=wrap;html=1;spacing=1;" vertex="1" parent="1">
          <mxGeometry x="-208.25" y="430" width="60" height="40" as="geometry" />
        </mxCell>
        <mxCell id="-HCXJBuDXDDv5yldLikC-106" value="user_id" style="ellipse;whiteSpace=wrap;html=1;fontColor=#2b00ff;" vertex="1" parent="1">
          <mxGeometry x="-184.13" y="480" width="60" height="40" as="geometry" />
        </mxCell>
        <mxCell id="-HCXJBuDXDDv5yldLikC-107" value="" style="endArrow=classic;html=1;rounded=0;exitX=0;exitY=1;exitDx=0;exitDy=0;" edge="1" parent="1" source="-HCXJBuDXDDv5yldLikC-101" target="-HCXJBuDXDDv5yldLikC-111">
          <mxGeometry width="50" height="50" relative="1" as="geometry">
            <mxPoint x="-328.25" y="480" as="sourcePoint" />
            <mxPoint x="-344.1323529411766" y="542.3529411764707" as="targetPoint" />
          </mxGeometry>
        </mxCell>
        <mxCell id="-HCXJBuDXDDv5yldLikC-108" value="First&lt;br&gt;_Name" style="ellipse;whiteSpace=wrap;html=1;" vertex="1" parent="1">
          <mxGeometry x="-328.25" y="400" width="60" height="40" as="geometry" />
        </mxCell>
        <mxCell id="-HCXJBuDXDDv5yldLikC-109" value="" style="endArrow=classic;html=1;rounded=0;exitX=0.5;exitY=1;exitDx=0;exitDy=0;" edge="1" parent="1" source="-HCXJBuDXDDv5yldLikC-101" target="-HCXJBuDXDDv5yldLikC-110">
          <mxGeometry width="50" height="50" relative="1" as="geometry">
            <mxPoint x="-308.25" y="490" as="sourcePoint" />
            <mxPoint x="-258.25" y="560" as="targetPoint" />
          </mxGeometry>
        </mxCell>
        <mxCell id="-HCXJBuDXDDv5yldLikC-110" value="contact&lt;br&gt;_Number" style="ellipse;whiteSpace=wrap;html=1;" vertex="1" parent="1">
          <mxGeometry x="-288.25" y="550" width="74.12" height="40" as="geometry" />
        </mxCell>
        <mxCell id="-HCXJBuDXDDv5yldLikC-111" value="id" style="ellipse;whiteSpace=wrap;html=1;fontStyle=4;fontColor=#e91616;" vertex="1" parent="1">
          <mxGeometry x="-404.13" y="517" width="54.12" height="40" as="geometry" />
        </mxCell>
        <mxCell id="-HCXJBuDXDDv5yldLikC-112" value="" style="endArrow=classic;html=1;rounded=0;exitX=0.856;exitY=0.065;exitDx=0;exitDy=0;exitPerimeter=0;" edge="1" parent="1" target="-HCXJBuDXDDv5yldLikC-113" source="-HCXJBuDXDDv5yldLikC-101">
          <mxGeometry width="50" height="50" relative="1" as="geometry">
            <mxPoint x="-231.13" y="470" as="sourcePoint" />
            <mxPoint x="-278.25" y="420" as="targetPoint" />
          </mxGeometry>
        </mxCell>
        <mxCell id="-HCXJBuDXDDv5yldLikC-113" value="Last&lt;br&gt;_Name" style="ellipse;whiteSpace=wrap;html=1;" vertex="1" parent="1">
          <mxGeometry x="-258.25" y="400" width="60" height="40" as="geometry" />
        </mxCell>
        <mxCell id="-HCXJBuDXDDv5yldLikC-115" value="" style="endArrow=classic;html=1;rounded=0;exitX=1;exitY=1;exitDx=0;exitDy=0;" edge="1" parent="1" target="-HCXJBuDXDDv5yldLikC-116" source="-HCXJBuDXDDv5yldLikC-101">
          <mxGeometry width="50" height="50" relative="1" as="geometry">
            <mxPoint x="-111.13" y="497" as="sourcePoint" />
            <mxPoint x="-98.25" y="547" as="targetPoint" />
          </mxGeometry>
        </mxCell>
        <mxCell id="-HCXJBuDXDDv5yldLikC-116" value="Experience&amp;nbsp;" style="ellipse;whiteSpace=wrap;html=1;" vertex="1" parent="1">
          <mxGeometry x="-191.19000000000005" y="537" width="74.12" height="40" as="geometry" />
        </mxCell>
        <mxCell id="-HCXJBuDXDDv5yldLikC-117" value="" style="endArrow=classic;html=1;rounded=0;exitX=0.156;exitY=1.093;exitDx=0;exitDy=0;exitPerimeter=0;" edge="1" parent="1" target="-HCXJBuDXDDv5yldLikC-118" source="-HCXJBuDXDDv5yldLikC-101">
          <mxGeometry width="50" height="50" relative="1" as="geometry">
            <mxPoint x="-296.37" y="517" as="sourcePoint" />
            <mxPoint x="-322.3723529411766" y="549.3529411764707" as="targetPoint" />
          </mxGeometry>
        </mxCell>
        <mxCell id="-HCXJBuDXDDv5yldLikC-118" value="Status&amp;nbsp;" style="ellipse;whiteSpace=wrap;html=1;fontStyle=0;fontColor=#000000;" vertex="1" parent="1">
          <mxGeometry x="-352.37" y="550" width="54.12" height="40" as="geometry" />
        </mxCell>
        <mxCell id="-HCXJBuDXDDv5yldLikC-120" value="" style="rhombus;whiteSpace=wrap;html=1;" vertex="1" parent="1">
          <mxGeometry x="-600" y="425" width="60" height="35" as="geometry" />
        </mxCell>
        <mxCell id="-HCXJBuDXDDv5yldLikC-121" value="" style="endArrow=none;html=1;rounded=0;entryX=0;entryY=0.5;entryDx=0;entryDy=0;" edge="1" parent="1" source="-HCXJBuDXDDv5yldLikC-1" target="-HCXJBuDXDDv5yldLikC-120">
          <mxGeometry width="50" height="50" relative="1" as="geometry">
            <mxPoint x="-690" y="370" as="sourcePoint" />
            <mxPoint x="-640" y="320" as="targetPoint" />
          </mxGeometry>
        </mxCell>
        <mxCell id="-HCXJBuDXDDv5yldLikC-123" value="" style="rhombus;whiteSpace=wrap;html=1;" vertex="1" parent="1">
          <mxGeometry x="-797.06" y="250" width="60" height="40" as="geometry" />
        </mxCell>
        <mxCell id="-HCXJBuDXDDv5yldLikC-124" value="" style="endArrow=none;html=1;rounded=0;exitX=1;exitY=0.25;exitDx=0;exitDy=0;entryX=0.5;entryY=1;entryDx=0;entryDy=0;" edge="1" parent="1" source="-HCXJBuDXDDv5yldLikC-1" target="-HCXJBuDXDDv5yldLikC-123">
          <mxGeometry width="50" height="50" relative="1" as="geometry">
            <mxPoint x="-690" y="370" as="sourcePoint" />
            <mxPoint x="-640" y="320" as="targetPoint" />
            <Array as="points">
              <mxPoint x="-767" y="330" />
            </Array>
          </mxGeometry>
        </mxCell>
        <mxCell id="-HCXJBuDXDDv5yldLikC-125" value="" style="endArrow=none;html=1;rounded=0;entryX=0.002;entryY=0.648;entryDx=0;entryDy=0;exitX=0.5;exitY=0;exitDx=0;exitDy=0;entryPerimeter=0;" edge="1" parent="1" source="-HCXJBuDXDDv5yldLikC-123" target="-HCXJBuDXDDv5yldLikC-90">
          <mxGeometry width="50" height="50" relative="1" as="geometry">
            <mxPoint x="-690" y="370" as="sourcePoint" />
            <mxPoint x="-640" y="320" as="targetPoint" />
            <Array as="points">
              <mxPoint x="-767" y="210" />
            </Array>
          </mxGeometry>
        </mxCell>
        <mxCell id="-HCXJBuDXDDv5yldLikC-126" value="1" style="text;strokeColor=none;align=center;fillColor=none;html=1;verticalAlign=middle;whiteSpace=wrap;rounded=0;" vertex="1" parent="1">
          <mxGeometry x="-754.12" y="225" width="60" height="30" as="geometry" />
        </mxCell>
        <mxCell id="-HCXJBuDXDDv5yldLikC-127" value="1" style="text;strokeColor=none;align=center;fillColor=none;html=1;verticalAlign=middle;whiteSpace=wrap;rounded=0;" vertex="1" parent="1">
          <mxGeometry x="-754.12" y="285" width="60" height="30" as="geometry" />
        </mxCell>
        <mxCell id="-HCXJBuDXDDv5yldLikC-128" value="1" style="text;strokeColor=none;align=center;fillColor=none;html=1;verticalAlign=middle;whiteSpace=wrap;rounded=0;" vertex="1" parent="1">
          <mxGeometry x="-560" y="420" width="60" height="30" as="geometry" />
        </mxCell>
        <mxCell id="-HCXJBuDXDDv5yldLikC-130" value="1" style="text;strokeColor=none;align=center;fillColor=none;html=1;verticalAlign=middle;whiteSpace=wrap;rounded=0;" vertex="1" parent="1">
          <mxGeometry x="-634.12" y="415" width="60" height="30" as="geometry" />
        </mxCell>
        <mxCell id="-HCXJBuDXDDv5yldLikC-142" value="" style="endArrow=none;html=1;rounded=0;exitX=1;exitY=0.5;exitDx=0;exitDy=0;entryX=0;entryY=0.25;entryDx=0;entryDy=0;" edge="1" parent="1" source="-HCXJBuDXDDv5yldLikC-120" target="-HCXJBuDXDDv5yldLikC-101">
          <mxGeometry width="50" height="50" relative="1" as="geometry">
            <mxPoint x="-640" y="550" as="sourcePoint" />
            <mxPoint x="-420" y="540" as="targetPoint" />
          </mxGeometry>
        </mxCell>
        <mxCell id="-HCXJBuDXDDv5yldLikC-143" value="M" style="text;strokeColor=none;align=center;fillColor=none;html=1;verticalAlign=middle;whiteSpace=wrap;rounded=0;labelBackgroundColor=default;" vertex="1" parent="1">
          <mxGeometry x="-912.94" y="285" width="60" height="30" as="geometry" />
        </mxCell>
        <mxCell id="-HCXJBuDXDDv5yldLikC-144" value="Individual&amp;nbsp;&lt;br&gt;Customer&amp;nbsp;" style="rounded=0;whiteSpace=wrap;html=1;align=center;fontFamily=Verdana;fontSize=12;" vertex="1" parent="1">
          <mxGeometry x="-370.6" y="255" width="94.12" height="30" as="geometry" />
        </mxCell>
        <mxCell id="-HCXJBuDXDDv5yldLikC-145" value="" style="endArrow=classic;html=1;rounded=0;exitX=1;exitY=0.75;exitDx=0;exitDy=0;" edge="1" parent="1" source="-HCXJBuDXDDv5yldLikC-144" target="-HCXJBuDXDDv5yldLikC-149">
          <mxGeometry width="50" height="50" relative="1" as="geometry">
            <mxPoint x="-310.6" y="255" as="sourcePoint" />
            <mxPoint x="-280.6" y="225" as="targetPoint" />
          </mxGeometry>
        </mxCell>
        <mxCell id="-HCXJBuDXDDv5yldLikC-146" value="" style="endArrow=classic;html=1;rounded=0;exitX=1;exitY=0;exitDx=0;exitDy=0;" edge="1" parent="1" source="-HCXJBuDXDDv5yldLikC-144" target="-HCXJBuDXDDv5yldLikC-148">
          <mxGeometry width="50" height="50" relative="1" as="geometry">
            <mxPoint x="-320.6" y="255" as="sourcePoint" />
            <mxPoint x="-310.6" y="205" as="targetPoint" />
          </mxGeometry>
        </mxCell>
        <mxCell id="-HCXJBuDXDDv5yldLikC-147" value="" style="endArrow=classic;html=1;rounded=0;exitX=0.5;exitY=0;exitDx=0;exitDy=0;" edge="1" parent="1" source="-HCXJBuDXDDv5yldLikC-144" target="-HCXJBuDXDDv5yldLikC-151">
          <mxGeometry width="50" height="50" relative="1" as="geometry">
            <mxPoint x="-355.6" y="255" as="sourcePoint" />
            <mxPoint x="-370.6" y="205" as="targetPoint" />
          </mxGeometry>
        </mxCell>
        <mxCell id="-HCXJBuDXDDv5yldLikC-148" value="email" style="ellipse;whiteSpace=wrap;html=1;spacing=1;" vertex="1" parent="1">
          <mxGeometry x="-290.6" y="195" width="60" height="40" as="geometry" />
        </mxCell>
        <mxCell id="-HCXJBuDXDDv5yldLikC-149" value="user_id" style="ellipse;whiteSpace=wrap;html=1;fontColor=#2b00ff;" vertex="1" parent="1">
          <mxGeometry x="-270.6" y="275" width="60" height="40" as="geometry" />
        </mxCell>
        <mxCell id="-HCXJBuDXDDv5yldLikC-150" value="" style="endArrow=classic;html=1;rounded=0;exitX=0;exitY=1;exitDx=0;exitDy=0;" edge="1" parent="1" source="-HCXJBuDXDDv5yldLikC-144" target="-HCXJBuDXDDv5yldLikC-154">
          <mxGeometry width="50" height="50" relative="1" as="geometry">
            <mxPoint x="-380.6" y="255" as="sourcePoint" />
            <mxPoint x="-396.4823529411766" y="317.3529411764707" as="targetPoint" />
          </mxGeometry>
        </mxCell>
        <mxCell id="-HCXJBuDXDDv5yldLikC-151" value="Last&lt;br&gt;_Name" style="ellipse;whiteSpace=wrap;html=1;" vertex="1" parent="1">
          <mxGeometry x="-380.6" y="175" width="60" height="40" as="geometry" />
        </mxCell>
        <mxCell id="-HCXJBuDXDDv5yldLikC-152" value="" style="endArrow=classic;html=1;rounded=0;exitX=0.5;exitY=1;exitDx=0;exitDy=0;" edge="1" parent="1" source="-HCXJBuDXDDv5yldLikC-144" target="-HCXJBuDXDDv5yldLikC-153">
          <mxGeometry width="50" height="50" relative="1" as="geometry">
            <mxPoint x="-360.6" y="265" as="sourcePoint" />
            <mxPoint x="-310.6" y="335" as="targetPoint" />
          </mxGeometry>
        </mxCell>
        <mxCell id="-HCXJBuDXDDv5yldLikC-153" value="contact&lt;br&gt;_Number" style="ellipse;whiteSpace=wrap;html=1;" vertex="1" parent="1">
          <mxGeometry x="-340.6" y="325" width="74.12" height="40" as="geometry" />
        </mxCell>
        <mxCell id="-HCXJBuDXDDv5yldLikC-154" value="id" style="ellipse;whiteSpace=wrap;html=1;fontStyle=4;fontColor=#e91616;" vertex="1" parent="1">
          <mxGeometry x="-416.48" y="325" width="54.12" height="40" as="geometry" />
        </mxCell>
        <mxCell id="-HCXJBuDXDDv5yldLikC-155" value="" style="endArrow=classic;html=1;rounded=0;exitX=0;exitY=0;exitDx=0;exitDy=0;" edge="1" parent="1" target="-HCXJBuDXDDv5yldLikC-156" source="-HCXJBuDXDDv5yldLikC-144">
          <mxGeometry width="50" height="50" relative="1" as="geometry">
            <mxPoint x="-391.12" y="270" as="sourcePoint" />
            <mxPoint x="-438.24" y="220" as="targetPoint" />
          </mxGeometry>
        </mxCell>
        <mxCell id="-HCXJBuDXDDv5yldLikC-156" value="First&lt;br&gt;_Name" style="ellipse;whiteSpace=wrap;html=1;" vertex="1" parent="1">
          <mxGeometry x="-448.24" y="190" width="60" height="40" as="geometry" />
        </mxCell>
        <mxCell id="-HCXJBuDXDDv5yldLikC-157" value="" style="rhombus;whiteSpace=wrap;html=1;" vertex="1" parent="1">
          <mxGeometry x="-634.12" y="350" width="60" height="40" as="geometry" />
        </mxCell>
        <mxCell id="-HCXJBuDXDDv5yldLikC-158" value="" style="endArrow=none;html=1;rounded=0;exitX=1;exitY=0.5;exitDx=0;exitDy=0;entryX=0;entryY=0.5;entryDx=0;entryDy=0;" edge="1" parent="1" source="-HCXJBuDXDDv5yldLikC-1" target="-HCXJBuDXDDv5yldLikC-157">
          <mxGeometry width="50" height="50" relative="1" as="geometry">
            <mxPoint x="-890" y="400" as="sourcePoint" />
            <mxPoint x="-710" y="405" as="targetPoint" />
          </mxGeometry>
        </mxCell>
        <mxCell id="-HCXJBuDXDDv5yldLikC-159" value="" style="endArrow=none;html=1;rounded=0;exitX=1;exitY=0.5;exitDx=0;exitDy=0;entryX=0;entryY=0.5;entryDx=0;entryDy=0;" edge="1" parent="1" source="-HCXJBuDXDDv5yldLikC-157" target="-HCXJBuDXDDv5yldLikC-144">
          <mxGeometry width="50" height="50" relative="1" as="geometry">
            <mxPoint x="-547.66" y="380" as="sourcePoint" />
            <mxPoint x="-497.65999999999997" y="330" as="targetPoint" />
          </mxGeometry>
        </mxCell>
        <mxCell id="-HCXJBuDXDDv5yldLikC-160" value="1" style="text;strokeColor=none;align=center;fillColor=none;html=1;verticalAlign=middle;whiteSpace=wrap;rounded=0;" vertex="1" parent="1">
          <mxGeometry x="-600" y="335" width="60" height="30" as="geometry" />
        </mxCell>
        <mxCell id="-HCXJBuDXDDv5yldLikC-161" value="1" style="text;strokeColor=none;align=center;fillColor=none;html=1;verticalAlign=middle;whiteSpace=wrap;rounded=0;" vertex="1" parent="1">
          <mxGeometry x="-670" y="340" width="60" height="30" as="geometry" />
        </mxCell>
        <mxCell id="-HCXJBuDXDDv5yldLikC-163" value="Construction&lt;br style=&quot;border-color: var(--border-color); font-family: Helvetica;&quot;&gt;&lt;span style=&quot;font-family: Helvetica;&quot;&gt;_material_Vendor&amp;nbsp;&lt;/span&gt;" style="rounded=0;whiteSpace=wrap;html=1;align=center;fontFamily=Verdana;fontSize=12;" vertex="1" parent="1">
          <mxGeometry x="-1582.94" y="470" width="94.12" height="30" as="geometry" />
        </mxCell>
        <mxCell id="-HCXJBuDXDDv5yldLikC-164" value="" style="endArrow=classic;html=1;rounded=0;exitX=1;exitY=0.75;exitDx=0;exitDy=0;" edge="1" parent="1" source="-HCXJBuDXDDv5yldLikC-163" target="-HCXJBuDXDDv5yldLikC-168">
          <mxGeometry width="50" height="50" relative="1" as="geometry">
            <mxPoint x="-1500" y="470" as="sourcePoint" />
            <mxPoint x="-1470" y="440" as="targetPoint" />
          </mxGeometry>
        </mxCell>
        <mxCell id="-HCXJBuDXDDv5yldLikC-165" value="" style="endArrow=classic;html=1;rounded=0;exitX=1;exitY=0;exitDx=0;exitDy=0;" edge="1" parent="1" source="-HCXJBuDXDDv5yldLikC-163" target="-HCXJBuDXDDv5yldLikC-167">
          <mxGeometry width="50" height="50" relative="1" as="geometry">
            <mxPoint x="-1510" y="470" as="sourcePoint" />
            <mxPoint x="-1500" y="420" as="targetPoint" />
          </mxGeometry>
        </mxCell>
        <mxCell id="-HCXJBuDXDDv5yldLikC-166" value="" style="endArrow=classic;html=1;rounded=0;exitX=0.5;exitY=0;exitDx=0;exitDy=0;" edge="1" parent="1" source="-HCXJBuDXDDv5yldLikC-163" target="-HCXJBuDXDDv5yldLikC-170">
          <mxGeometry width="50" height="50" relative="1" as="geometry">
            <mxPoint x="-1545" y="470" as="sourcePoint" />
            <mxPoint x="-1560" y="420" as="targetPoint" />
          </mxGeometry>
        </mxCell>
        <mxCell id="-HCXJBuDXDDv5yldLikC-167" value="email" style="ellipse;whiteSpace=wrap;html=1;spacing=1;" vertex="1" parent="1">
          <mxGeometry x="-1440" y="422.5" width="60" height="40" as="geometry" />
        </mxCell>
        <mxCell id="-HCXJBuDXDDv5yldLikC-168" value="user_id" style="ellipse;whiteSpace=wrap;html=1;fontColor=#2b00ff;" vertex="1" parent="1">
          <mxGeometry x="-1460" y="490" width="60" height="40" as="geometry" />
        </mxCell>
        <mxCell id="-HCXJBuDXDDv5yldLikC-169" value="" style="endArrow=classic;html=1;rounded=0;exitX=0;exitY=1;exitDx=0;exitDy=0;" edge="1" parent="1" source="-HCXJBuDXDDv5yldLikC-163" target="-HCXJBuDXDDv5yldLikC-173">
          <mxGeometry width="50" height="50" relative="1" as="geometry">
            <mxPoint x="-1570" y="470" as="sourcePoint" />
            <mxPoint x="-1585.8823529411766" y="532.3529411764707" as="targetPoint" />
          </mxGeometry>
        </mxCell>
        <mxCell id="-HCXJBuDXDDv5yldLikC-170" value="Shop&lt;br&gt;_Name" style="ellipse;whiteSpace=wrap;html=1;" vertex="1" parent="1">
          <mxGeometry x="-1570" y="390" width="60" height="40" as="geometry" />
        </mxCell>
        <mxCell id="-HCXJBuDXDDv5yldLikC-171" value="" style="endArrow=classic;html=1;rounded=0;exitX=0.75;exitY=1;exitDx=0;exitDy=0;" edge="1" parent="1" source="-HCXJBuDXDDv5yldLikC-163" target="-HCXJBuDXDDv5yldLikC-172">
          <mxGeometry width="50" height="50" relative="1" as="geometry">
            <mxPoint x="-1550" y="480" as="sourcePoint" />
            <mxPoint x="-1500" y="550" as="targetPoint" />
          </mxGeometry>
        </mxCell>
        <mxCell id="-HCXJBuDXDDv5yldLikC-172" value="contact&lt;br&gt;_Number" style="ellipse;whiteSpace=wrap;html=1;" vertex="1" parent="1">
          <mxGeometry x="-1505" y="550" width="74.12" height="40" as="geometry" />
        </mxCell>
        <mxCell id="-HCXJBuDXDDv5yldLikC-173" value="id" style="ellipse;whiteSpace=wrap;html=1;fontStyle=4;fontColor=#e91616;" vertex="1" parent="1">
          <mxGeometry x="-1642.94" y="530" width="54.12" height="40" as="geometry" />
        </mxCell>
        <mxCell id="-HCXJBuDXDDv5yldLikC-174" value="" style="endArrow=classic;html=1;rounded=0;exitX=0;exitY=0;exitDx=0;exitDy=0;" edge="1" parent="1" target="-HCXJBuDXDDv5yldLikC-175" source="-HCXJBuDXDDv5yldLikC-163">
          <mxGeometry width="50" height="50" relative="1" as="geometry">
            <mxPoint x="-1600" y="500" as="sourcePoint" />
            <mxPoint x="-1670" y="440" as="targetPoint" />
          </mxGeometry>
        </mxCell>
        <mxCell id="-HCXJBuDXDDv5yldLikC-175" value="Membership&lt;br&gt;_id" style="ellipse;whiteSpace=wrap;html=1;fontColor=#0066CC;" vertex="1" parent="1">
          <mxGeometry x="-1660" y="420" width="80" height="40" as="geometry" />
        </mxCell>
        <mxCell id="-HCXJBuDXDDv5yldLikC-176" value="" style="rhombus;whiteSpace=wrap;html=1;rotation=-30;" vertex="1" parent="1">
          <mxGeometry x="-1420" y="350" width="60" height="35" as="geometry" />
        </mxCell>
        <mxCell id="-HCXJBuDXDDv5yldLikC-180" value="" style="endArrow=none;html=1;rounded=0;entryX=0;entryY=0.5;entryDx=0;entryDy=0;" edge="1" parent="1" target="-HCXJBuDXDDv5yldLikC-176">
          <mxGeometry width="50" height="50" relative="1" as="geometry">
            <mxPoint x="-1500" y="470" as="sourcePoint" />
            <mxPoint x="-1450" y="417.5" as="targetPoint" />
          </mxGeometry>
        </mxCell>
        <mxCell id="-HCXJBuDXDDv5yldLikC-182" value="" style="endArrow=none;html=1;rounded=0;exitX=1;exitY=0.5;exitDx=0;exitDy=0;entryX=0;entryY=0.75;entryDx=0;entryDy=0;" edge="1" parent="1" source="-HCXJBuDXDDv5yldLikC-176" target="-HCXJBuDXDDv5yldLikC-47">
          <mxGeometry width="50" height="50" relative="1" as="geometry">
            <mxPoint x="-1360" y="350" as="sourcePoint" />
            <mxPoint x="-1250" y="280" as="targetPoint" />
          </mxGeometry>
        </mxCell>
        <mxCell id="-HCXJBuDXDDv5yldLikC-196" value="Vendor&amp;nbsp;&lt;br&gt;Product" style="rounded=0;whiteSpace=wrap;html=1;align=center;fontFamily=Verdana;fontSize=12;" vertex="1" parent="1">
          <mxGeometry x="-1547.06" y="767.5" width="94.12" height="30" as="geometry" />
        </mxCell>
        <mxCell id="-HCXJBuDXDDv5yldLikC-197" value="" style="endArrow=classic;html=1;rounded=0;" edge="1" parent="1" source="-HCXJBuDXDDv5yldLikC-196" target="-HCXJBuDXDDv5yldLikC-201">
          <mxGeometry width="50" height="50" relative="1" as="geometry">
            <mxPoint x="-1450" y="800" as="sourcePoint" />
            <mxPoint x="-1450" y="737.5" as="targetPoint" />
          </mxGeometry>
        </mxCell>
        <mxCell id="-HCXJBuDXDDv5yldLikC-198" value="" style="endArrow=classic;html=1;rounded=0;exitX=1;exitY=0;exitDx=0;exitDy=0;" edge="1" parent="1" source="-HCXJBuDXDDv5yldLikC-196" target="-HCXJBuDXDDv5yldLikC-200">
          <mxGeometry width="50" height="50" relative="1" as="geometry">
            <mxPoint x="-1450" y="790" as="sourcePoint" />
            <mxPoint x="-1480" y="717.5" as="targetPoint" />
          </mxGeometry>
        </mxCell>
        <mxCell id="-HCXJBuDXDDv5yldLikC-199" value="" style="endArrow=classic;html=1;rounded=0;exitX=0.028;exitY=-0.044;exitDx=0;exitDy=0;exitPerimeter=0;" edge="1" parent="1" source="-HCXJBuDXDDv5yldLikC-196" target="-HCXJBuDXDDv5yldLikC-203">
          <mxGeometry width="50" height="50" relative="1" as="geometry">
            <mxPoint x="-1525" y="767.5" as="sourcePoint" />
            <mxPoint x="-1540" y="717.5" as="targetPoint" />
          </mxGeometry>
        </mxCell>
        <mxCell id="-HCXJBuDXDDv5yldLikC-200" value="Price" style="ellipse;whiteSpace=wrap;html=1;spacing=1;" vertex="1" parent="1">
          <mxGeometry x="-1472.94" y="700" width="60" height="40" as="geometry" />
        </mxCell>
        <mxCell id="-HCXJBuDXDDv5yldLikC-201" value="Product_Id" style="ellipse;whiteSpace=wrap;html=1;fontColor=#2b00ff;" vertex="1" parent="1">
          <mxGeometry x="-1460" y="837.5" width="60" height="40" as="geometry" />
        </mxCell>
        <mxCell id="-HCXJBuDXDDv5yldLikC-202" value="" style="endArrow=classic;html=1;rounded=0;exitX=0;exitY=1;exitDx=0;exitDy=0;" edge="1" parent="1" source="-HCXJBuDXDDv5yldLikC-196" target="-HCXJBuDXDDv5yldLikC-206">
          <mxGeometry width="50" height="50" relative="1" as="geometry">
            <mxPoint x="-1550" y="767.5" as="sourcePoint" />
            <mxPoint x="-1565.8823529411766" y="829.8529411764707" as="targetPoint" />
          </mxGeometry>
        </mxCell>
        <mxCell id="-HCXJBuDXDDv5yldLikC-203" value="Offer&lt;br&gt;percentage&amp;nbsp;" style="ellipse;whiteSpace=wrap;html=1;" vertex="1" parent="1">
          <mxGeometry x="-1642.94" y="680" width="82.94" height="40" as="geometry" />
        </mxCell>
        <mxCell id="-HCXJBuDXDDv5yldLikC-204" value="" style="endArrow=classic;html=1;rounded=0;" edge="1" parent="1" target="-HCXJBuDXDDv5yldLikC-205">
          <mxGeometry width="50" height="50" relative="1" as="geometry">
            <mxPoint x="-1530" y="800" as="sourcePoint" />
            <mxPoint x="-1480" y="847.5" as="targetPoint" />
          </mxGeometry>
        </mxCell>
        <mxCell id="-HCXJBuDXDDv5yldLikC-205" value="Quantity&amp;nbsp;" style="ellipse;whiteSpace=wrap;html=1;" vertex="1" parent="1">
          <mxGeometry x="-1614.88" y="850" width="74.12" height="40" as="geometry" />
        </mxCell>
        <mxCell id="-HCXJBuDXDDv5yldLikC-206" value="id" style="ellipse;whiteSpace=wrap;html=1;fontStyle=4;fontColor=#e91616;" vertex="1" parent="1">
          <mxGeometry x="-1667.06" y="797.5" width="54.12" height="40" as="geometry" />
        </mxCell>
        <mxCell id="-HCXJBuDXDDv5yldLikC-207" value="" style="endArrow=classic;html=1;rounded=0;exitX=0.002;exitY=0.404;exitDx=0;exitDy=0;exitPerimeter=0;entryX=1;entryY=0.5;entryDx=0;entryDy=0;" edge="1" parent="1" source="-HCXJBuDXDDv5yldLikC-196" target="-HCXJBuDXDDv5yldLikC-208">
          <mxGeometry width="50" height="50" relative="1" as="geometry">
            <mxPoint x="-1550" y="780.5" as="sourcePoint" />
            <mxPoint x="-1587.5512394639475" y="773.2207105277691" as="targetPoint" />
          </mxGeometry>
        </mxCell>
        <mxCell id="-HCXJBuDXDDv5yldLikC-208" value="Vendor_Id" style="ellipse;whiteSpace=wrap;html=1;fontColor=#0066CC;" vertex="1" parent="1">
          <mxGeometry x="-1680" y="740" width="80" height="40" as="geometry" />
        </mxCell>
        <mxCell id="-HCXJBuDXDDv5yldLikC-209" value="" style="endArrow=none;html=1;rounded=0;exitX=0.188;exitY=0.039;exitDx=0;exitDy=0;exitPerimeter=0;entryX=0.5;entryY=1;entryDx=0;entryDy=0;" edge="1" parent="1" source="-HCXJBuDXDDv5yldLikC-196" target="-HCXJBuDXDDv5yldLikC-228">
          <mxGeometry width="50" height="50" relative="1" as="geometry">
            <mxPoint x="-1480" y="767.5" as="sourcePoint" />
            <mxPoint x="-1530" y="680" as="targetPoint" />
          </mxGeometry>
        </mxCell>
        <mxCell id="-HCXJBuDXDDv5yldLikC-226" value="" style="endArrow=classic;html=1;rounded=0;exitX=0.5;exitY=0;exitDx=0;exitDy=0;" edge="1" parent="1" target="-HCXJBuDXDDv5yldLikC-227" source="-HCXJBuDXDDv5yldLikC-196">
          <mxGeometry width="50" height="50" relative="1" as="geometry">
            <mxPoint x="-1420" y="767.5" as="sourcePoint" />
            <mxPoint x="-1430" y="732.5" as="targetPoint" />
          </mxGeometry>
        </mxCell>
        <mxCell id="-HCXJBuDXDDv5yldLikC-227" value="Offer&lt;br&gt;ValidDate&amp;nbsp;" style="ellipse;whiteSpace=wrap;html=1;" vertex="1" parent="1">
          <mxGeometry x="-1522.94" y="654" width="110" height="40" as="geometry" />
        </mxCell>
        <mxCell id="-HCXJBuDXDDv5yldLikC-228" value="" style="rhombus;whiteSpace=wrap;html=1;" vertex="1" parent="1">
          <mxGeometry x="-1560" y="610" width="60" height="45" as="geometry" />
        </mxCell>
        <mxCell id="-HCXJBuDXDDv5yldLikC-229" value="" style="endArrow=none;html=1;rounded=0;exitX=0.188;exitY=0.039;exitDx=0;exitDy=0;exitPerimeter=0;" edge="1" parent="1">
          <mxGeometry width="50" height="50" relative="1" as="geometry">
            <mxPoint x="-1529.5" y="610" as="sourcePoint" />
            <mxPoint x="-1530" y="500" as="targetPoint" />
          </mxGeometry>
        </mxCell>
        <mxCell id="-HCXJBuDXDDv5yldLikC-230" value="Product" style="rounded=0;whiteSpace=wrap;html=1;align=center;fontFamily=Verdana;fontSize=12;" vertex="1" parent="1">
          <mxGeometry x="-1554.12" y="1020" width="94.12" height="30" as="geometry" />
        </mxCell>
        <mxCell id="-HCXJBuDXDDv5yldLikC-231" value="" style="endArrow=classic;html=1;rounded=0;exitX=1;exitY=0;exitDx=0;exitDy=0;" edge="1" parent="1" source="-HCXJBuDXDDv5yldLikC-230" target="-HCXJBuDXDDv5yldLikC-235">
          <mxGeometry width="50" height="50" relative="1" as="geometry">
            <mxPoint x="-1467.06" y="1030" as="sourcePoint" />
            <mxPoint x="-1437.06" y="1000" as="targetPoint" />
          </mxGeometry>
        </mxCell>
        <mxCell id="-HCXJBuDXDDv5yldLikC-233" value="" style="endArrow=classic;html=1;rounded=0;exitX=0;exitY=0;exitDx=0;exitDy=0;" edge="1" parent="1" source="-HCXJBuDXDDv5yldLikC-230" target="-HCXJBuDXDDv5yldLikC-237">
          <mxGeometry width="50" height="50" relative="1" as="geometry">
            <mxPoint x="-1530" y="1030" as="sourcePoint" />
            <mxPoint x="-1527.06" y="980" as="targetPoint" />
          </mxGeometry>
        </mxCell>
        <mxCell id="-HCXJBuDXDDv5yldLikC-235" value="Category&lt;br&gt;_Id" style="ellipse;whiteSpace=wrap;html=1;fontColor=#2b00ff;" vertex="1" parent="1">
          <mxGeometry x="-1440" y="970" width="60" height="40" as="geometry" />
        </mxCell>
        <mxCell id="-HCXJBuDXDDv5yldLikC-236" value="" style="endArrow=classic;html=1;rounded=0;exitX=0;exitY=0.5;exitDx=0;exitDy=0;" edge="1" parent="1" source="-HCXJBuDXDDv5yldLikC-230" target="-HCXJBuDXDDv5yldLikC-240">
          <mxGeometry width="50" height="50" relative="1" as="geometry">
            <mxPoint x="-1537.06" y="1030" as="sourcePoint" />
            <mxPoint x="-1552.9423529411765" y="1092.3529411764707" as="targetPoint" />
          </mxGeometry>
        </mxCell>
        <mxCell id="-HCXJBuDXDDv5yldLikC-237" value="Product&lt;br&gt;_name" style="ellipse;whiteSpace=wrap;html=1;" vertex="1" parent="1">
          <mxGeometry x="-1642.94" y="960" width="60" height="40" as="geometry" />
        </mxCell>
        <mxCell id="-HCXJBuDXDDv5yldLikC-240" value="id" style="ellipse;whiteSpace=wrap;html=1;fontStyle=4;fontColor=#e91616;" vertex="1" parent="1">
          <mxGeometry x="-1654.12" y="1040" width="54.12" height="40" as="geometry" />
        </mxCell>
        <mxCell id="-HCXJBuDXDDv5yldLikC-245" value="" style="endArrow=classic;html=1;rounded=0;exitX=0.166;exitY=1.071;exitDx=0;exitDy=0;exitPerimeter=0;" edge="1" parent="1" source="-HCXJBuDXDDv5yldLikC-230" target="-HCXJBuDXDDv5yldLikC-246">
          <mxGeometry width="50" height="50" relative="1" as="geometry">
            <mxPoint x="-1505.18" y="1067" as="sourcePoint" />
            <mxPoint x="-1531.1823529411765" y="1099.3529411764707" as="targetPoint" />
          </mxGeometry>
        </mxCell>
        <mxCell id="-HCXJBuDXDDv5yldLikC-246" value="Description&amp;nbsp;" style="ellipse;whiteSpace=wrap;html=1;fontStyle=0;fontColor=#000000;" vertex="1" parent="1">
          <mxGeometry x="-1605" y="1090" width="69.24" height="40" as="geometry" />
        </mxCell>
        <mxCell id="-HCXJBuDXDDv5yldLikC-248" value="" style="endArrow=classic;html=1;rounded=0;" edge="1" parent="1" target="-HCXJBuDXDDv5yldLikC-249" source="-HCXJBuDXDDv5yldLikC-230">
          <mxGeometry width="50" height="50" relative="1" as="geometry">
            <mxPoint x="-1337" y="1220" as="sourcePoint" />
            <mxPoint x="-1317.06" y="1170" as="targetPoint" />
          </mxGeometry>
        </mxCell>
        <mxCell id="-HCXJBuDXDDv5yldLikC-249" value="Stock&amp;nbsp;&lt;br&gt;Quantity&amp;nbsp;" style="ellipse;whiteSpace=wrap;html=1;" vertex="1" parent="1">
          <mxGeometry x="-1505" y="1090" width="60" height="40" as="geometry" />
        </mxCell>
        <mxCell id="-HCXJBuDXDDv5yldLikC-250" value="" style="rhombus;whiteSpace=wrap;html=1;" vertex="1" parent="1">
          <mxGeometry x="-1530.38" y="900" width="60.76" height="40" as="geometry" />
        </mxCell>
        <mxCell id="-HCXJBuDXDDv5yldLikC-251" value="" style="endArrow=none;html=1;rounded=0;exitX=0.5;exitY=0;exitDx=0;exitDy=0;entryX=0.5;entryY=1;entryDx=0;entryDy=0;" edge="1" parent="1" source="-HCXJBuDXDDv5yldLikC-250" target="-HCXJBuDXDDv5yldLikC-196">
          <mxGeometry width="50" height="50" relative="1" as="geometry">
            <mxPoint x="-1555" y="847.5" as="sourcePoint" />
            <mxPoint x="-1505" y="797.5" as="targetPoint" />
          </mxGeometry>
        </mxCell>
        <mxCell id="-HCXJBuDXDDv5yldLikC-252" value="" style="endArrow=none;html=1;rounded=0;exitX=0.575;exitY=0;exitDx=0;exitDy=0;entryX=0.5;entryY=1;entryDx=0;entryDy=0;exitPerimeter=0;" edge="1" parent="1" source="-HCXJBuDXDDv5yldLikC-230">
          <mxGeometry width="50" height="50" relative="1" as="geometry">
            <mxPoint x="-1500.37" y="1040" as="sourcePoint" />
            <mxPoint x="-1500.37" y="938" as="targetPoint" />
          </mxGeometry>
        </mxCell>
        <mxCell id="-HCXJBuDXDDv5yldLikC-254" value="" style="endArrow=none;html=1;rounded=0;entryX=1;entryY=1;entryDx=0;entryDy=0;exitX=0;exitY=0.5;exitDx=0;exitDy=0;" edge="1" parent="1" source="-HCXJBuDXDDv5yldLikC-256" target="-HCXJBuDXDDv5yldLikC-230">
          <mxGeometry width="50" height="50" relative="1" as="geometry">
            <mxPoint x="-1400" y="1100" as="sourcePoint" />
            <mxPoint x="-1410.4" y="1048" as="targetPoint" />
          </mxGeometry>
        </mxCell>
        <mxCell id="-HCXJBuDXDDv5yldLikC-256" value="" style="rhombus;whiteSpace=wrap;html=1;" vertex="1" parent="1">
          <mxGeometry x="-1390" y="1080" width="60" height="40" as="geometry" />
        </mxCell>
        <mxCell id="-HCXJBuDXDDv5yldLikC-257" value="Category&amp;nbsp;" style="rounded=0;whiteSpace=wrap;html=1;align=center;fontFamily=Verdana;fontSize=12;" vertex="1" parent="1">
          <mxGeometry x="-1254.12" y="1110" width="94.12" height="30" as="geometry" />
        </mxCell>
        <mxCell id="-HCXJBuDXDDv5yldLikC-259" value="" style="endArrow=classic;html=1;rounded=0;exitX=0.633;exitY=0.022;exitDx=0;exitDy=0;exitPerimeter=0;" edge="1" parent="1" source="-HCXJBuDXDDv5yldLikC-257" target="-HCXJBuDXDDv5yldLikC-261">
          <mxGeometry width="50" height="50" relative="1" as="geometry">
            <mxPoint x="-1180" y="1090" as="sourcePoint" />
            <mxPoint x="-1177.06" y="1040" as="targetPoint" />
          </mxGeometry>
        </mxCell>
        <mxCell id="-HCXJBuDXDDv5yldLikC-260" value="" style="endArrow=classic;html=1;rounded=0;" edge="1" parent="1" source="-HCXJBuDXDDv5yldLikC-257" target="-HCXJBuDXDDv5yldLikC-262">
          <mxGeometry width="50" height="50" relative="1" as="geometry">
            <mxPoint x="-1187.06" y="1090" as="sourcePoint" />
            <mxPoint x="-1202.9423529411765" y="1152.3529411764707" as="targetPoint" />
          </mxGeometry>
        </mxCell>
        <mxCell id="-HCXJBuDXDDv5yldLikC-261" value="Category&amp;nbsp;&lt;br&gt;Name" style="ellipse;whiteSpace=wrap;html=1;" vertex="1" parent="1">
          <mxGeometry x="-1180" y="1040" width="60" height="40" as="geometry" />
        </mxCell>
        <mxCell id="-HCXJBuDXDDv5yldLikC-262" value="id" style="ellipse;whiteSpace=wrap;html=1;fontStyle=4;fontColor=#e91616;" vertex="1" parent="1">
          <mxGeometry x="-1290" y="1190" width="54.12" height="40" as="geometry" />
        </mxCell>
        <mxCell id="-HCXJBuDXDDv5yldLikC-263" value="" style="endArrow=classic;html=1;rounded=0;exitX=0.828;exitY=1.03;exitDx=0;exitDy=0;exitPerimeter=0;" edge="1" parent="1" source="-HCXJBuDXDDv5yldLikC-257" target="-HCXJBuDXDDv5yldLikC-264">
          <mxGeometry width="50" height="50" relative="1" as="geometry">
            <mxPoint x="-1155.18" y="1127" as="sourcePoint" />
            <mxPoint x="-1181.1823529411765" y="1159.3529411764707" as="targetPoint" />
          </mxGeometry>
        </mxCell>
        <mxCell id="-HCXJBuDXDDv5yldLikC-264" value="Description&amp;nbsp;" style="ellipse;whiteSpace=wrap;html=1;fontStyle=0;fontColor=#000000;" vertex="1" parent="1">
          <mxGeometry x="-1180" y="1190" width="69.24" height="40" as="geometry" />
        </mxCell>
        <mxCell id="-HCXJBuDXDDv5yldLikC-267" value="" style="endArrow=none;html=1;rounded=0;exitX=1;exitY=0.5;exitDx=0;exitDy=0;entryX=-0.014;entryY=0.368;entryDx=0;entryDy=0;entryPerimeter=0;" edge="1" parent="1" source="-HCXJBuDXDDv5yldLikC-256" target="-HCXJBuDXDDv5yldLikC-257">
          <mxGeometry width="50" height="50" relative="1" as="geometry">
            <mxPoint x="-1290" y="1130" as="sourcePoint" />
            <mxPoint x="-1260" y="1120" as="targetPoint" />
          </mxGeometry>
        </mxCell>
        <mxCell id="-HCXJBuDXDDv5yldLikC-281" value="Order&lt;br&gt;Item" style="rounded=0;whiteSpace=wrap;html=1;align=center;fontFamily=Verdana;fontSize=12;" vertex="1" parent="1">
          <mxGeometry x="-1137.06" y="850" width="94.12" height="30" as="geometry" />
        </mxCell>
        <mxCell id="-HCXJBuDXDDv5yldLikC-282" value="" style="endArrow=classic;html=1;rounded=0;exitX=0;exitY=0;exitDx=0;exitDy=0;" edge="1" parent="1" source="-HCXJBuDXDDv5yldLikC-281" target="-HCXJBuDXDDv5yldLikC-284">
          <mxGeometry width="50" height="50" relative="1" as="geometry">
            <mxPoint x="-972.9399999999999" y="852.5" as="sourcePoint" />
            <mxPoint x="-942.9399999999999" y="822.5" as="targetPoint" />
          </mxGeometry>
        </mxCell>
        <mxCell id="-HCXJBuDXDDv5yldLikC-284" value="Vendor&amp;nbsp;&lt;br&gt;Product_id" style="ellipse;whiteSpace=wrap;html=1;fontColor=#2b00ff;" vertex="1" parent="1">
          <mxGeometry x="-1220" y="790" width="94.12" height="40" as="geometry" />
        </mxCell>
        <mxCell id="-HCXJBuDXDDv5yldLikC-285" value="" style="endArrow=classic;html=1;rounded=0;exitX=0;exitY=1;exitDx=0;exitDy=0;" edge="1" parent="1" source="-HCXJBuDXDDv5yldLikC-281" target="-HCXJBuDXDDv5yldLikC-287">
          <mxGeometry width="50" height="50" relative="1" as="geometry">
            <mxPoint x="-1060" y="875" as="sourcePoint" />
            <mxPoint x="-1058.8223529411766" y="914.8529411764707" as="targetPoint" />
          </mxGeometry>
        </mxCell>
        <mxCell id="-HCXJBuDXDDv5yldLikC-287" value="id" style="ellipse;whiteSpace=wrap;html=1;fontStyle=4;fontColor=#e91616;" vertex="1" parent="1">
          <mxGeometry x="-1191.18" y="906.25" width="54.12" height="40" as="geometry" />
        </mxCell>
        <mxCell id="-HCXJBuDXDDv5yldLikC-288" value="" style="endArrow=classic;html=1;rounded=0;exitX=0.75;exitY=1;exitDx=0;exitDy=0;" edge="1" parent="1" source="-HCXJBuDXDDv5yldLikC-281" target="-HCXJBuDXDDv5yldLikC-289">
          <mxGeometry width="50" height="50" relative="1" as="geometry">
            <mxPoint x="-970" y="875" as="sourcePoint" />
            <mxPoint x="-1037.0623529411764" y="921.8529411764707" as="targetPoint" />
          </mxGeometry>
        </mxCell>
        <mxCell id="-HCXJBuDXDDv5yldLikC-289" value="Quantity" style="ellipse;whiteSpace=wrap;html=1;fontStyle=0;fontColor=#000000;" vertex="1" parent="1">
          <mxGeometry x="-1078.06" y="917.5" width="69.24" height="40" as="geometry" />
        </mxCell>
        <mxCell id="-HCXJBuDXDDv5yldLikC-293" value="" style="endArrow=classic;html=1;rounded=0;exitX=0.694;exitY=-0.05;exitDx=0;exitDy=0;exitPerimeter=0;" edge="1" parent="1" target="-HCXJBuDXDDv5yldLikC-294" source="-HCXJBuDXDDv5yldLikC-281">
          <mxGeometry width="50" height="50" relative="1" as="geometry">
            <mxPoint x="-850.3" y="852.5" as="sourcePoint" />
            <mxPoint x="-733.24" y="832" as="targetPoint" />
          </mxGeometry>
        </mxCell>
        <mxCell id="-HCXJBuDXDDv5yldLikC-294" value="Order_id" style="ellipse;whiteSpace=wrap;html=1;fontColor=#2b00ff;" vertex="1" parent="1">
          <mxGeometry x="-1097.06" y="772.5" width="94.12" height="40" as="geometry" />
        </mxCell>
        <mxCell id="-HCXJBuDXDDv5yldLikC-296" value="" style="rhombus;whiteSpace=wrap;html=1;" vertex="1" parent="1">
          <mxGeometry x="-1310" y="840" width="60" height="40" as="geometry" />
        </mxCell>
        <mxCell id="-HCXJBuDXDDv5yldLikC-297" value="" style="endArrow=none;html=1;rounded=0;entryX=1;entryY=0.5;entryDx=0;entryDy=0;exitX=0;exitY=0.75;exitDx=0;exitDy=0;" edge="1" parent="1" source="-HCXJBuDXDDv5yldLikC-281" target="-HCXJBuDXDDv5yldLikC-296">
          <mxGeometry width="50" height="50" relative="1" as="geometry">
            <mxPoint x="-1090" y="915" as="sourcePoint" />
            <mxPoint x="-1190" y="867.5" as="targetPoint" />
          </mxGeometry>
        </mxCell>
        <mxCell id="-HCXJBuDXDDv5yldLikC-298" value="" style="endArrow=none;html=1;rounded=0;entryX=1.012;entryY=0.93;entryDx=0;entryDy=0;exitX=0;exitY=0.5;exitDx=0;exitDy=0;entryPerimeter=0;" edge="1" parent="1" source="-HCXJBuDXDDv5yldLikC-296" target="-HCXJBuDXDDv5yldLikC-196">
          <mxGeometry width="50" height="50" relative="1" as="geometry">
            <mxPoint x="-1360" y="784" as="sourcePoint" />
            <mxPoint x="-1452.94" y="784" as="targetPoint" />
          </mxGeometry>
        </mxCell>
        <mxCell id="-HCXJBuDXDDv5yldLikC-299" value="Orders" style="rounded=0;whiteSpace=wrap;html=1;align=center;fontFamily=Verdana;fontSize=12;" vertex="1" parent="1">
          <mxGeometry x="-776.1800000000001" y="767.5" width="94.12" height="30" as="geometry" />
        </mxCell>
        <mxCell id="-HCXJBuDXDDv5yldLikC-300" value="" style="endArrow=classic;html=1;rounded=0;exitX=0.5;exitY=0;exitDx=0;exitDy=0;" edge="1" parent="1" source="-HCXJBuDXDDv5yldLikC-299" target="-HCXJBuDXDDv5yldLikC-304">
          <mxGeometry width="50" height="50" relative="1" as="geometry">
            <mxPoint x="-722.36" y="790" as="sourcePoint" />
            <mxPoint x="-692.36" y="760" as="targetPoint" />
          </mxGeometry>
        </mxCell>
        <mxCell id="-HCXJBuDXDDv5yldLikC-301" value="" style="endArrow=classic;html=1;rounded=0;exitX=0.75;exitY=1;exitDx=0;exitDy=0;" edge="1" parent="1" source="-HCXJBuDXDDv5yldLikC-299" target="-HCXJBuDXDDv5yldLikC-303">
          <mxGeometry width="50" height="50" relative="1" as="geometry">
            <mxPoint x="-744.12" y="800" as="sourcePoint" />
            <mxPoint x="-722.36" y="740" as="targetPoint" />
          </mxGeometry>
        </mxCell>
        <mxCell id="-HCXJBuDXDDv5yldLikC-302" value="" style="endArrow=classic;html=1;rounded=0;exitX=0;exitY=0;exitDx=0;exitDy=0;" edge="1" parent="1" source="-HCXJBuDXDDv5yldLikC-299" target="-HCXJBuDXDDv5yldLikC-306">
          <mxGeometry width="50" height="50" relative="1" as="geometry">
            <mxPoint x="-767.36" y="790" as="sourcePoint" />
            <mxPoint x="-782.36" y="740" as="targetPoint" />
          </mxGeometry>
        </mxCell>
        <mxCell id="-HCXJBuDXDDv5yldLikC-303" value="Address_id" style="ellipse;whiteSpace=wrap;html=1;spacing=1;" vertex="1" parent="1">
          <mxGeometry x="-721.1800000000001" y="872.5" width="60" height="40" as="geometry" />
        </mxCell>
        <mxCell id="-HCXJBuDXDDv5yldLikC-304" value="user_id" style="ellipse;whiteSpace=wrap;html=1;fontColor=#2b00ff;" vertex="1" parent="1">
          <mxGeometry x="-656.77" y="635" width="60" height="40" as="geometry" />
        </mxCell>
        <mxCell id="-HCXJBuDXDDv5yldLikC-305" value="" style="endArrow=classic;html=1;rounded=0;exitX=0;exitY=1;exitDx=0;exitDy=0;" edge="1" parent="1" source="-HCXJBuDXDDv5yldLikC-299" target="-HCXJBuDXDDv5yldLikC-309">
          <mxGeometry width="50" height="50" relative="1" as="geometry">
            <mxPoint x="-792.36" y="790" as="sourcePoint" />
            <mxPoint x="-808.2423529411766" y="852.3529411764707" as="targetPoint" />
          </mxGeometry>
        </mxCell>
        <mxCell id="-HCXJBuDXDDv5yldLikC-306" value="order_date" style="ellipse;whiteSpace=wrap;html=1;" vertex="1" parent="1">
          <mxGeometry x="-884.12" y="700" width="60" height="40" as="geometry" />
        </mxCell>
        <mxCell id="-HCXJBuDXDDv5yldLikC-307" value="" style="endArrow=classic;html=1;rounded=0;exitX=0.307;exitY=1.011;exitDx=0;exitDy=0;exitPerimeter=0;" edge="1" parent="1" source="-HCXJBuDXDDv5yldLikC-299" target="-HCXJBuDXDDv5yldLikC-308">
          <mxGeometry width="50" height="50" relative="1" as="geometry">
            <mxPoint x="-772.36" y="800" as="sourcePoint" />
            <mxPoint x="-722.36" y="870" as="targetPoint" />
          </mxGeometry>
        </mxCell>
        <mxCell id="-HCXJBuDXDDv5yldLikC-308" value="Initial&lt;br&gt;Payment&lt;br&gt;_Mode" style="ellipse;whiteSpace=wrap;html=1;" vertex="1" parent="1">
          <mxGeometry x="-825.3" y="920" width="78.24" height="50" as="geometry" />
        </mxCell>
        <mxCell id="-HCXJBuDXDDv5yldLikC-309" value="id" style="ellipse;whiteSpace=wrap;html=1;fontStyle=4;fontColor=#e91616;" vertex="1" parent="1">
          <mxGeometry x="-924.12" y="812.5" width="54.12" height="40" as="geometry" />
        </mxCell>
        <mxCell id="-HCXJBuDXDDv5yldLikC-310" value="" style="endArrow=classic;html=1;rounded=0;exitX=0.204;exitY=0.01;exitDx=0;exitDy=0;exitPerimeter=0;" edge="1" parent="1" source="-HCXJBuDXDDv5yldLikC-299" target="-HCXJBuDXDDv5yldLikC-311">
          <mxGeometry width="50" height="50" relative="1" as="geometry">
            <mxPoint x="-695.24" y="780" as="sourcePoint" />
            <mxPoint x="-742.36" y="730" as="targetPoint" />
          </mxGeometry>
        </mxCell>
        <mxCell id="-HCXJBuDXDDv5yldLikC-311" value="Total&lt;br&gt;Price" style="ellipse;whiteSpace=wrap;html=1;" vertex="1" parent="1">
          <mxGeometry x="-836.1800000000001" y="665" width="60" height="40" as="geometry" />
        </mxCell>
        <mxCell id="-HCXJBuDXDDv5yldLikC-312" value="" style="endArrow=classic;html=1;rounded=0;exitX=0.672;exitY=0.01;exitDx=0;exitDy=0;exitPerimeter=0;" edge="1" parent="1" source="-HCXJBuDXDDv5yldLikC-299" target="-HCXJBuDXDDv5yldLikC-313">
          <mxGeometry width="50" height="50" relative="1" as="geometry">
            <mxPoint x="-575.24" y="807" as="sourcePoint" />
            <mxPoint x="-562.36" y="857" as="targetPoint" />
          </mxGeometry>
        </mxCell>
        <mxCell id="-HCXJBuDXDDv5yldLikC-313" value="Initial_payment" style="ellipse;whiteSpace=wrap;html=1;" vertex="1" parent="1">
          <mxGeometry x="-641.1800000000001" y="687.5" width="91.18" height="40" as="geometry" />
        </mxCell>
        <mxCell id="-HCXJBuDXDDv5yldLikC-314" value="" style="endArrow=classic;html=1;rounded=0;exitX=0.09;exitY=0.984;exitDx=0;exitDy=0;exitPerimeter=0;" edge="1" parent="1" source="-HCXJBuDXDDv5yldLikC-299" target="-HCXJBuDXDDv5yldLikC-315">
          <mxGeometry width="50" height="50" relative="1" as="geometry">
            <mxPoint x="-760.48" y="827" as="sourcePoint" />
            <mxPoint x="-786.4823529411766" y="859.3529411764707" as="targetPoint" />
          </mxGeometry>
        </mxCell>
        <mxCell id="-HCXJBuDXDDv5yldLikC-315" value="Status_Id&amp;nbsp;" style="ellipse;whiteSpace=wrap;html=1;fontStyle=0;fontColor=#1c41fd;" vertex="1" parent="1">
          <mxGeometry x="-864.12" y="820" width="62.94" height="40" as="geometry" />
        </mxCell>
        <mxCell id="-HCXJBuDXDDv5yldLikC-316" value="" style="endArrow=classic;html=1;rounded=0;exitX=0.855;exitY=0.977;exitDx=0;exitDy=0;exitPerimeter=0;" edge="1" parent="1" target="-HCXJBuDXDDv5yldLikC-317" source="-HCXJBuDXDDv5yldLikC-299">
          <mxGeometry width="50" height="50" relative="1" as="geometry">
            <mxPoint x="-694.12" y="800" as="sourcePoint" />
            <mxPoint x="-625.3" y="950" as="targetPoint" />
          </mxGeometry>
        </mxCell>
        <mxCell id="-HCXJBuDXDDv5yldLikC-317" value="Initial&lt;br&gt;Payment&lt;br&gt;Transaction_id" style="ellipse;whiteSpace=wrap;html=1;" vertex="1" parent="1">
          <mxGeometry x="-682.06" y="907.5" width="120" height="50" as="geometry" />
        </mxCell>
        <mxCell id="-HCXJBuDXDDv5yldLikC-318" value="" style="endArrow=classic;html=1;rounded=0;exitX=1;exitY=0.75;exitDx=0;exitDy=0;" edge="1" parent="1" target="-HCXJBuDXDDv5yldLikC-319" source="-HCXJBuDXDDv5yldLikC-299">
          <mxGeometry width="50" height="50" relative="1" as="geometry">
            <mxPoint x="-521" y="900" as="sourcePoint" />
            <mxPoint x="-508.24" y="950" as="targetPoint" />
          </mxGeometry>
        </mxCell>
        <mxCell id="-HCXJBuDXDDv5yldLikC-319" value="final&lt;br&gt;Payment&lt;br&gt;_Mode" style="ellipse;whiteSpace=wrap;html=1;" vertex="1" parent="1">
          <mxGeometry x="-644.12" y="840" width="78.24" height="50" as="geometry" />
        </mxCell>
        <mxCell id="-HCXJBuDXDDv5yldLikC-320" value="" style="endArrow=classic;html=1;rounded=0;exitX=0.219;exitY=0.969;exitDx=0;exitDy=0;exitPerimeter=0;" edge="1" parent="1" target="-HCXJBuDXDDv5yldLikC-321" source="-HCXJBuDXDDv5yldLikC-299">
          <mxGeometry width="50" height="50" relative="1" as="geometry">
            <mxPoint x="-784.12" y="800" as="sourcePoint" />
            <mxPoint x="-736.48" y="990" as="targetPoint" />
          </mxGeometry>
        </mxCell>
        <mxCell id="-HCXJBuDXDDv5yldLikC-321" value="Final&lt;br&gt;Payment&lt;br&gt;Date" style="ellipse;whiteSpace=wrap;html=1;" vertex="1" parent="1">
          <mxGeometry x="-889.4200000000001" y="887.5" width="78.24" height="50" as="geometry" />
        </mxCell>
        <mxCell id="-HCXJBuDXDDv5yldLikC-322" value="" style="endArrow=classic;html=1;rounded=0;exitX=0.4;exitY=-0.017;exitDx=0;exitDy=0;exitPerimeter=0;" edge="1" parent="1" target="-HCXJBuDXDDv5yldLikC-323" source="-HCXJBuDXDDv5yldLikC-299">
          <mxGeometry width="50" height="50" relative="1" as="geometry">
            <mxPoint x="-764.12" y="760" as="sourcePoint" />
            <mxPoint x="-609.4200000000001" y="1090" as="targetPoint" />
          </mxGeometry>
        </mxCell>
        <mxCell id="-HCXJBuDXDDv5yldLikC-323" value="Final&lt;br&gt;Payment&lt;br&gt;Transaction_id" style="ellipse;whiteSpace=wrap;html=1;" vertex="1" parent="1">
          <mxGeometry x="-787.06" y="635" width="120" height="50" as="geometry" />
        </mxCell>
        <mxCell id="-HCXJBuDXDDv5yldLikC-325" value="" style="endArrow=classic;html=1;rounded=0;exitX=1;exitY=0.5;exitDx=0;exitDy=0;" edge="1" parent="1" target="-HCXJBuDXDDv5yldLikC-326" source="-HCXJBuDXDDv5yldLikC-299">
          <mxGeometry width="50" height="50" relative="1" as="geometry">
            <mxPoint x="-684.12" y="800" as="sourcePoint" />
            <mxPoint x="-426.48" y="930" as="targetPoint" />
          </mxGeometry>
        </mxCell>
        <mxCell id="-HCXJBuDXDDv5yldLikC-326" value="final&lt;br&gt;Payment" style="ellipse;whiteSpace=wrap;html=1;" vertex="1" parent="1">
          <mxGeometry x="-607.36" y="790" width="78.24" height="50" as="geometry" />
        </mxCell>
        <mxCell id="-HCXJBuDXDDv5yldLikC-327" value="" style="rhombus;whiteSpace=wrap;html=1;" vertex="1" parent="1">
          <mxGeometry x="-912.94" y="767.5" width="60" height="40" as="geometry" />
        </mxCell>
        <mxCell id="-HCXJBuDXDDv5yldLikC-328" value="" style="endArrow=none;html=1;rounded=0;entryX=1;entryY=0.5;entryDx=0;entryDy=0;exitX=0;exitY=0.5;exitDx=0;exitDy=0;" edge="1" parent="1" source="-HCXJBuDXDDv5yldLikC-327" target="-HCXJBuDXDDv5yldLikC-281">
          <mxGeometry width="50" height="50" relative="1" as="geometry">
            <mxPoint x="-1160" y="900" as="sourcePoint" />
            <mxPoint x="-1110" y="850" as="targetPoint" />
          </mxGeometry>
        </mxCell>
        <mxCell id="-HCXJBuDXDDv5yldLikC-329" value="" style="endArrow=none;html=1;rounded=0;exitX=1;exitY=0.5;exitDx=0;exitDy=0;entryX=-0.006;entryY=0.676;entryDx=0;entryDy=0;entryPerimeter=0;" edge="1" parent="1" source="-HCXJBuDXDDv5yldLikC-327" target="-HCXJBuDXDDv5yldLikC-299">
          <mxGeometry width="50" height="50" relative="1" as="geometry">
            <mxPoint x="-826.1800000000001" y="830" as="sourcePoint" />
            <mxPoint x="-776.1800000000001" y="780" as="targetPoint" />
          </mxGeometry>
        </mxCell>
        <mxCell id="-HCXJBuDXDDv5yldLikC-330" value="Order_Status" style="rounded=0;whiteSpace=wrap;html=1;align=center;fontFamily=Verdana;fontSize=12;" vertex="1" parent="1">
          <mxGeometry x="-771.1799999999998" y="1090" width="94.12" height="30" as="geometry" />
        </mxCell>
        <mxCell id="-HCXJBuDXDDv5yldLikC-332" value="" style="endArrow=classic;html=1;rounded=0;exitX=0.341;exitY=0.968;exitDx=0;exitDy=0;exitPerimeter=0;" edge="1" parent="1" source="-HCXJBuDXDDv5yldLikC-330" target="-HCXJBuDXDDv5yldLikC-334">
          <mxGeometry width="50" height="50" relative="1" as="geometry">
            <mxPoint x="-708.24" y="1060" as="sourcePoint" />
            <mxPoint x="-724.1223529411766" y="1122.3529411764707" as="targetPoint" />
          </mxGeometry>
        </mxCell>
        <mxCell id="-HCXJBuDXDDv5yldLikC-334" value="id" style="ellipse;whiteSpace=wrap;html=1;fontStyle=4;fontColor=#e91616;" vertex="1" parent="1">
          <mxGeometry x="-801.1800000000001" y="1180" width="54.12" height="40" as="geometry" />
        </mxCell>
        <mxCell id="-HCXJBuDXDDv5yldLikC-335" value="" style="endArrow=classic;html=1;rounded=0;" edge="1" parent="1" source="-HCXJBuDXDDv5yldLikC-330" target="-HCXJBuDXDDv5yldLikC-336">
          <mxGeometry width="50" height="50" relative="1" as="geometry">
            <mxPoint x="-676.3600000000001" y="1097" as="sourcePoint" />
            <mxPoint x="-702.3623529411766" y="1129.3529411764707" as="targetPoint" />
          </mxGeometry>
        </mxCell>
        <mxCell id="-HCXJBuDXDDv5yldLikC-336" value="Status" style="ellipse;whiteSpace=wrap;html=1;fontStyle=0;fontColor=#000000;" vertex="1" parent="1">
          <mxGeometry x="-708.74" y="1190" width="69.24" height="40" as="geometry" />
        </mxCell>
        <mxCell id="-HCXJBuDXDDv5yldLikC-337" value="" style="endArrow=none;html=1;rounded=0;entryX=0.5;entryY=1;entryDx=0;entryDy=0;" edge="1" parent="1" target="-HCXJBuDXDDv5yldLikC-299">
          <mxGeometry width="50" height="50" relative="1" as="geometry">
            <mxPoint x="-729.12" y="960" as="sourcePoint" />
            <mxPoint x="-854.12" y="760" as="targetPoint" />
          </mxGeometry>
        </mxCell>
        <mxCell id="-HCXJBuDXDDv5yldLikC-338" value="" style="rhombus;whiteSpace=wrap;html=1;" vertex="1" parent="1">
          <mxGeometry x="-754.12" y="960" width="50" height="40" as="geometry" />
        </mxCell>
        <mxCell id="-HCXJBuDXDDv5yldLikC-339" value="" style="endArrow=none;html=1;rounded=0;entryX=0.5;entryY=1;entryDx=0;entryDy=0;exitX=0.452;exitY=0.05;exitDx=0;exitDy=0;exitPerimeter=0;" edge="1" parent="1" source="-HCXJBuDXDDv5yldLikC-330" target="-HCXJBuDXDDv5yldLikC-338">
          <mxGeometry width="50" height="50" relative="1" as="geometry">
            <mxPoint x="-734.12" y="1080" as="sourcePoint" />
            <mxPoint x="-734.12" y="1010" as="targetPoint" />
          </mxGeometry>
        </mxCell>
        <mxCell id="-HCXJBuDXDDv5yldLikC-340" value="Cities" style="rounded=0;whiteSpace=wrap;html=1;align=center;fontFamily=Verdana;fontSize=12;" vertex="1" parent="1">
          <mxGeometry x="-291.19999999999993" y="1106.25" width="94.12" height="30" as="geometry" />
        </mxCell>
        <mxCell id="-HCXJBuDXDDv5yldLikC-341" value="" style="endArrow=classic;html=1;rounded=0;exitX=0.341;exitY=0.968;exitDx=0;exitDy=0;exitPerimeter=0;" edge="1" parent="1" source="-HCXJBuDXDDv5yldLikC-340" target="-HCXJBuDXDDv5yldLikC-342">
          <mxGeometry width="50" height="50" relative="1" as="geometry">
            <mxPoint x="-227.08999999999992" y="1050" as="sourcePoint" />
            <mxPoint x="-242.9723529411765" y="1112.3529411764707" as="targetPoint" />
          </mxGeometry>
        </mxCell>
        <mxCell id="-HCXJBuDXDDv5yldLikC-342" value="id" style="ellipse;whiteSpace=wrap;html=1;fontStyle=4;fontColor=#e91616;" vertex="1" parent="1">
          <mxGeometry x="-320.03" y="1170" width="54.12" height="40" as="geometry" />
        </mxCell>
        <mxCell id="-HCXJBuDXDDv5yldLikC-343" value="" style="endArrow=classic;html=1;rounded=0;" edge="1" parent="1" source="-HCXJBuDXDDv5yldLikC-340" target="-HCXJBuDXDDv5yldLikC-344">
          <mxGeometry width="50" height="50" relative="1" as="geometry">
            <mxPoint x="-195.21000000000004" y="1087" as="sourcePoint" />
            <mxPoint x="-221.2123529411765" y="1119.3529411764707" as="targetPoint" />
          </mxGeometry>
        </mxCell>
        <mxCell id="-HCXJBuDXDDv5yldLikC-344" value="City_Name" style="ellipse;whiteSpace=wrap;html=1;fontStyle=0;fontColor=#000000;" vertex="1" parent="1">
          <mxGeometry x="-227.58999999999992" y="1180" width="69.24" height="40" as="geometry" />
        </mxCell>
        <mxCell id="-HCXJBuDXDDv5yldLikC-345" value="Areas" style="rounded=0;whiteSpace=wrap;html=1;align=center;fontFamily=Verdana;fontSize=12;" vertex="1" parent="1">
          <mxGeometry x="-277.9699999999998" y="946.25" width="94.12" height="30" as="geometry" />
        </mxCell>
        <mxCell id="-HCXJBuDXDDv5yldLikC-346" value="" style="endArrow=classic;html=1;rounded=0;exitX=0;exitY=0;exitDx=0;exitDy=0;" edge="1" parent="1" source="-HCXJBuDXDDv5yldLikC-345" target="-HCXJBuDXDDv5yldLikC-348">
          <mxGeometry width="50" height="50" relative="1" as="geometry">
            <mxPoint x="-205.06999999999994" y="890" as="sourcePoint" />
            <mxPoint x="-202.12999999999988" y="840" as="targetPoint" />
          </mxGeometry>
        </mxCell>
        <mxCell id="-HCXJBuDXDDv5yldLikC-347" value="" style="endArrow=classic;html=1;rounded=0;exitX=0;exitY=1;exitDx=0;exitDy=0;" edge="1" parent="1" source="-HCXJBuDXDDv5yldLikC-345" target="-HCXJBuDXDDv5yldLikC-349">
          <mxGeometry width="50" height="50" relative="1" as="geometry">
            <mxPoint x="-212.12999999999988" y="890" as="sourcePoint" />
            <mxPoint x="-228.01235294117646" y="952.3529411764707" as="targetPoint" />
          </mxGeometry>
        </mxCell>
        <mxCell id="-HCXJBuDXDDv5yldLikC-348" value="City&lt;br&gt;_Name" style="ellipse;whiteSpace=wrap;html=1;" vertex="1" parent="1">
          <mxGeometry x="-355.31000000000006" y="893.75" width="60" height="40" as="geometry" />
        </mxCell>
        <mxCell id="-HCXJBuDXDDv5yldLikC-349" value="id" style="ellipse;whiteSpace=wrap;html=1;fontStyle=4;fontColor=#e91616;" vertex="1" parent="1">
          <mxGeometry x="-367.39" y="976.25" width="54.12" height="40" as="geometry" />
        </mxCell>
        <mxCell id="-HCXJBuDXDDv5yldLikC-350" value="" style="endArrow=classic;html=1;rounded=0;exitX=1;exitY=1;exitDx=0;exitDy=0;" edge="1" parent="1" source="-HCXJBuDXDDv5yldLikC-345" target="-HCXJBuDXDDv5yldLikC-351">
          <mxGeometry width="50" height="50" relative="1" as="geometry">
            <mxPoint x="-180.25" y="927" as="sourcePoint" />
            <mxPoint x="-206.25235294117647" y="959.3529411764707" as="targetPoint" />
          </mxGeometry>
        </mxCell>
        <mxCell id="-HCXJBuDXDDv5yldLikC-351" value="Pincode" style="ellipse;whiteSpace=wrap;html=1;fontStyle=0;fontColor=#000000;" vertex="1" parent="1">
          <mxGeometry x="-169.95000000000005" y="986.25" width="69.24" height="40" as="geometry" />
        </mxCell>
        <mxCell id="-HCXJBuDXDDv5yldLikC-352" value="" style="endArrow=classic;html=1;rounded=0;exitX=1;exitY=0;exitDx=0;exitDy=0;" edge="1" parent="1" target="-HCXJBuDXDDv5yldLikC-353" source="-HCXJBuDXDDv5yldLikC-345">
          <mxGeometry width="50" height="50" relative="1" as="geometry">
            <mxPoint x="-155.82999999999993" y="940" as="sourcePoint" />
            <mxPoint x="-132.88999999999987" y="920" as="targetPoint" />
          </mxGeometry>
        </mxCell>
        <mxCell id="-HCXJBuDXDDv5yldLikC-353" value="city_id" style="ellipse;whiteSpace=wrap;html=1;fontColor=#2b00ff;" vertex="1" parent="1">
          <mxGeometry x="-167.67000000000007" y="886.25" width="60" height="40" as="geometry" />
        </mxCell>
        <mxCell id="-HCXJBuDXDDv5yldLikC-355" value="" style="rhombus;whiteSpace=wrap;html=1;" vertex="1" parent="1">
          <mxGeometry x="-266.49" y="1016.25" width="60" height="40" as="geometry" />
        </mxCell>
        <mxCell id="-HCXJBuDXDDv5yldLikC-356" value="" style="endArrow=none;html=1;rounded=0;exitX=0.5;exitY=0;exitDx=0;exitDy=0;" edge="1" parent="1" source="-HCXJBuDXDDv5yldLikC-355">
          <mxGeometry width="50" height="50" relative="1" as="geometry">
            <mxPoint x="-334.23" y="1020" as="sourcePoint" />
            <mxPoint x="-236.06999999999994" y="976.25" as="targetPoint" />
          </mxGeometry>
        </mxCell>
        <mxCell id="-HCXJBuDXDDv5yldLikC-357" value="" style="endArrow=none;html=1;rounded=0;exitX=0.599;exitY=0.038;exitDx=0;exitDy=0;exitPerimeter=0;" edge="1" parent="1" source="-HCXJBuDXDDv5yldLikC-340">
          <mxGeometry width="50" height="50" relative="1" as="geometry">
            <mxPoint x="-236.23000000000002" y="1080" as="sourcePoint" />
            <mxPoint x="-236.06999999999994" y="1056.25" as="targetPoint" />
          </mxGeometry>
        </mxCell>
        <mxCell id="-HCXJBuDXDDv5yldLikC-358" value="Address" style="rounded=0;whiteSpace=wrap;html=1;align=center;fontFamily=Verdana;fontSize=12;" vertex="1" parent="1">
          <mxGeometry x="-259.43999999999994" y="763.75" width="94.12" height="30" as="geometry" />
        </mxCell>
        <mxCell id="-HCXJBuDXDDv5yldLikC-359" value="" style="endArrow=classic;html=1;rounded=0;exitX=0;exitY=0;exitDx=0;exitDy=0;" edge="1" parent="1" source="-HCXJBuDXDDv5yldLikC-358" target="-HCXJBuDXDDv5yldLikC-361">
          <mxGeometry width="50" height="50" relative="1" as="geometry">
            <mxPoint x="-185.25" y="713.75" as="sourcePoint" />
            <mxPoint x="-182.30999999999995" y="663.75" as="targetPoint" />
          </mxGeometry>
        </mxCell>
        <mxCell id="-HCXJBuDXDDv5yldLikC-360" value="" style="endArrow=classic;html=1;rounded=0;exitX=0;exitY=1;exitDx=0;exitDy=0;" edge="1" parent="1" source="-HCXJBuDXDDv5yldLikC-358" target="-HCXJBuDXDDv5yldLikC-362">
          <mxGeometry width="50" height="50" relative="1" as="geometry">
            <mxPoint x="-192.30999999999995" y="713.75" as="sourcePoint" />
            <mxPoint x="-208.19235294117652" y="776.1029411764707" as="targetPoint" />
          </mxGeometry>
        </mxCell>
        <mxCell id="-HCXJBuDXDDv5yldLikC-361" value="add_line" style="ellipse;whiteSpace=wrap;html=1;" vertex="1" parent="1">
          <mxGeometry x="-326.49" y="696.25" width="60" height="40" as="geometry" />
        </mxCell>
        <mxCell id="-HCXJBuDXDDv5yldLikC-362" value="id" style="ellipse;whiteSpace=wrap;html=1;fontStyle=4;fontColor=#e91616;" vertex="1" parent="1">
          <mxGeometry x="-326.49" y="818.75" width="54.12" height="40" as="geometry" />
        </mxCell>
        <mxCell id="-HCXJBuDXDDv5yldLikC-363" value="" style="endArrow=classic;html=1;rounded=0;exitX=1;exitY=1;exitDx=0;exitDy=0;" edge="1" parent="1" source="-HCXJBuDXDDv5yldLikC-358" target="-HCXJBuDXDDv5yldLikC-364">
          <mxGeometry width="50" height="50" relative="1" as="geometry">
            <mxPoint x="-160.43000000000006" y="750.75" as="sourcePoint" />
            <mxPoint x="-186.43235294117653" y="783.1029411764707" as="targetPoint" />
          </mxGeometry>
        </mxCell>
        <mxCell id="-HCXJBuDXDDv5yldLikC-364" value="user_id" style="ellipse;whiteSpace=wrap;html=1;fontStyle=0;fontColor=#290dfd;" vertex="1" parent="1">
          <mxGeometry x="-158.35000000000014" y="826.25" width="69.24" height="40" as="geometry" />
        </mxCell>
        <mxCell id="-HCXJBuDXDDv5yldLikC-365" value="" style="endArrow=classic;html=1;rounded=0;exitX=1;exitY=0;exitDx=0;exitDy=0;" edge="1" parent="1" source="-HCXJBuDXDDv5yldLikC-358" target="-HCXJBuDXDDv5yldLikC-366">
          <mxGeometry width="50" height="50" relative="1" as="geometry">
            <mxPoint x="-136.01" y="763.75" as="sourcePoint" />
            <mxPoint x="-113.06999999999994" y="743.75" as="targetPoint" />
          </mxGeometry>
        </mxCell>
        <mxCell id="-HCXJBuDXDDv5yldLikC-366" value="area_id" style="ellipse;whiteSpace=wrap;html=1;fontColor=#2b00ff;" vertex="1" parent="1">
          <mxGeometry x="-158.35000000000014" y="696.25" width="60" height="40" as="geometry" />
        </mxCell>
        <mxCell id="-HCXJBuDXDDv5yldLikC-367" value="" style="endArrow=none;html=1;rounded=0;entryX=0.314;entryY=0.996;entryDx=0;entryDy=0;entryPerimeter=0;exitX=0.5;exitY=0;exitDx=0;exitDy=0;" edge="1" parent="1" target="-HCXJBuDXDDv5yldLikC-358" source="-HCXJBuDXDDv5yldLikC-368">
          <mxGeometry width="50" height="50" relative="1" as="geometry">
            <mxPoint x="-229.23000000000002" y="820" as="sourcePoint" />
            <mxPoint x="-264.4100000000001" y="793.75" as="targetPoint" />
          </mxGeometry>
        </mxCell>
        <mxCell id="-HCXJBuDXDDv5yldLikC-368" value="" style="rhombus;whiteSpace=wrap;html=1;" vertex="1" parent="1">
          <mxGeometry x="-255.91000000000008" y="856.25" width="50" height="40" as="geometry" />
        </mxCell>
        <mxCell id="-HCXJBuDXDDv5yldLikC-369" value="" style="endArrow=none;html=1;rounded=0;entryX=0.5;entryY=1;entryDx=0;entryDy=0;exitX=0.5;exitY=0;exitDx=0;exitDy=0;" edge="1" parent="1" source="-HCXJBuDXDDv5yldLikC-345" target="-HCXJBuDXDDv5yldLikC-368">
          <mxGeometry width="50" height="50" relative="1" as="geometry">
            <mxPoint x="-164.23000000000002" y="810" as="sourcePoint" />
            <mxPoint x="-114.23000000000002" y="760" as="targetPoint" />
          </mxGeometry>
        </mxCell>
        <mxCell id="-HCXJBuDXDDv5yldLikC-372" value="" style="rhombus;whiteSpace=wrap;html=1;" vertex="1" parent="1">
          <mxGeometry x="-506.18" y="760" width="57.94" height="42.5" as="geometry" />
        </mxCell>
        <mxCell id="-HCXJBuDXDDv5yldLikC-373" value="" style="endArrow=none;html=1;rounded=0;entryX=1;entryY=0.5;entryDx=0;entryDy=0;exitX=0;exitY=0.5;exitDx=0;exitDy=0;" edge="1" parent="1" source="-HCXJBuDXDDv5yldLikC-358" target="-HCXJBuDXDDv5yldLikC-372">
          <mxGeometry width="50" height="50" relative="1" as="geometry">
            <mxPoint x="-440" y="790" as="sourcePoint" />
            <mxPoint x="-390" y="740" as="targetPoint" />
          </mxGeometry>
        </mxCell>
        <mxCell id="-HCXJBuDXDDv5yldLikC-374" value="" style="endArrow=none;html=1;rounded=0;entryX=0;entryY=0.5;entryDx=0;entryDy=0;exitX=1;exitY=0.25;exitDx=0;exitDy=0;" edge="1" parent="1" source="-HCXJBuDXDDv5yldLikC-299" target="-HCXJBuDXDDv5yldLikC-372">
          <mxGeometry width="50" height="50" relative="1" as="geometry">
            <mxPoint x="-588.24" y="767.5" as="sourcePoint" />
            <mxPoint x="-538.24" y="717.5" as="targetPoint" />
          </mxGeometry>
        </mxCell>
        <mxCell id="-HCXJBuDXDDv5yldLikC-385" value="Cart" style="rounded=0;whiteSpace=wrap;html=1;align=center;fontFamily=Verdana;fontSize=12;" vertex="1" parent="1">
          <mxGeometry x="-1054.12" y="617" width="59.08" height="22.5" as="geometry" />
        </mxCell>
        <mxCell id="-HCXJBuDXDDv5yldLikC-386" value="" style="endArrow=classic;html=1;rounded=0;exitX=0;exitY=0;exitDx=0;exitDy=0;" edge="1" parent="1" source="-HCXJBuDXDDv5yldLikC-385" target="-HCXJBuDXDDv5yldLikC-388">
          <mxGeometry width="50" height="50" relative="1" as="geometry">
            <mxPoint x="-1031.89" y="564.5" as="sourcePoint" />
            <mxPoint x="-1028.95" y="514.5" as="targetPoint" />
          </mxGeometry>
        </mxCell>
        <mxCell id="-HCXJBuDXDDv5yldLikC-387" value="" style="endArrow=classic;html=1;rounded=0;exitX=0;exitY=1;exitDx=0;exitDy=0;" edge="1" parent="1" source="-HCXJBuDXDDv5yldLikC-385" target="-HCXJBuDXDDv5yldLikC-389">
          <mxGeometry width="50" height="50" relative="1" as="geometry">
            <mxPoint x="-1038.95" y="564.5" as="sourcePoint" />
            <mxPoint x="-1054.8323529411766" y="626.8529411764707" as="targetPoint" />
          </mxGeometry>
        </mxCell>
        <mxCell id="-HCXJBuDXDDv5yldLikC-388" value="quantity&amp;nbsp;" style="ellipse;whiteSpace=wrap;html=1;" vertex="1" parent="1">
          <mxGeometry x="-1140" y="570" width="60" height="40" as="geometry" />
        </mxCell>
        <mxCell id="-HCXJBuDXDDv5yldLikC-389" value="id" style="ellipse;whiteSpace=wrap;html=1;fontStyle=4;fontColor=#e91616;" vertex="1" parent="1">
          <mxGeometry x="-1130" y="647.5" width="54.12" height="40" as="geometry" />
        </mxCell>
        <mxCell id="-HCXJBuDXDDv5yldLikC-390" value="" style="endArrow=classic;html=1;rounded=0;exitX=1;exitY=1;exitDx=0;exitDy=0;" edge="1" parent="1" source="-HCXJBuDXDDv5yldLikC-385" target="-HCXJBuDXDDv5yldLikC-391">
          <mxGeometry width="50" height="50" relative="1" as="geometry">
            <mxPoint x="-1007.0700000000002" y="601.5" as="sourcePoint" />
            <mxPoint x="-1033.0723529411766" y="633.8529411764707" as="targetPoint" />
          </mxGeometry>
        </mxCell>
        <mxCell id="-HCXJBuDXDDv5yldLikC-391" value="Vendor&amp;nbsp;&lt;br&gt;product&lt;br&gt;id" style="ellipse;whiteSpace=wrap;html=1;fontStyle=0;fontColor=#290dfd;" vertex="1" parent="1">
          <mxGeometry x="-990" y="660" width="67.29" height="40" as="geometry" />
        </mxCell>
        <mxCell id="-HCXJBuDXDDv5yldLikC-392" value="" style="endArrow=classic;html=1;rounded=0;exitX=1;exitY=0;exitDx=0;exitDy=0;" edge="1" parent="1" source="-HCXJBuDXDDv5yldLikC-385" target="-HCXJBuDXDDv5yldLikC-393">
          <mxGeometry width="50" height="50" relative="1" as="geometry">
            <mxPoint x="-982.6500000000001" y="614.5" as="sourcePoint" />
            <mxPoint x="-959.71" y="594.5" as="targetPoint" />
          </mxGeometry>
        </mxCell>
        <mxCell id="-HCXJBuDXDDv5yldLikC-393" value="user_id" style="ellipse;whiteSpace=wrap;html=1;fontColor=#2b00ff;" vertex="1" parent="1">
          <mxGeometry x="-984.1200000000001" y="577" width="60" height="40" as="geometry" />
        </mxCell>
        <mxCell id="-HCXJBuDXDDv5yldLikC-396" value="" style="rhombus;whiteSpace=wrap;html=1;rotation=30;" vertex="1" parent="1">
          <mxGeometry x="-1016.08" y="500" width="49.02" height="40" as="geometry" />
        </mxCell>
        <mxCell id="-HCXJBuDXDDv5yldLikC-397" value="" style="endArrow=none;html=1;rounded=0;entryX=0.5;entryY=1;entryDx=0;entryDy=0;" edge="1" parent="1" target="-HCXJBuDXDDv5yldLikC-396">
          <mxGeometry width="50" height="50" relative="1" as="geometry">
            <mxPoint x="-1020" y="615" as="sourcePoint" />
            <mxPoint x="-1019.24" y="564.5" as="targetPoint" />
          </mxGeometry>
        </mxCell>
        <mxCell id="-HCXJBuDXDDv5yldLikC-398" value="" style="endArrow=none;html=1;rounded=0;entryX=0.25;entryY=1;entryDx=0;entryDy=0;exitX=0.5;exitY=0;exitDx=0;exitDy=0;" edge="1" parent="1" source="-HCXJBuDXDDv5yldLikC-396" target="-HCXJBuDXDDv5yldLikC-1">
          <mxGeometry width="50" height="50" relative="1" as="geometry">
            <mxPoint x="-982.06" y="500" as="sourcePoint" />
            <mxPoint x="-932.06" y="450" as="targetPoint" />
          </mxGeometry>
        </mxCell>
        <mxCell id="-HCXJBuDXDDv5yldLikC-399" value="review&amp;nbsp;" style="rounded=0;whiteSpace=wrap;html=1;align=center;fontFamily=Verdana;fontSize=12;" vertex="1" parent="1">
          <mxGeometry x="-1236.6" y="480" width="59.08" height="22.5" as="geometry" />
        </mxCell>
        <mxCell id="-HCXJBuDXDDv5yldLikC-400" value="" style="endArrow=classic;html=1;rounded=0;exitX=0;exitY=0;exitDx=0;exitDy=0;" edge="1" parent="1" source="-HCXJBuDXDDv5yldLikC-399" target="-HCXJBuDXDDv5yldLikC-402">
          <mxGeometry width="50" height="50" relative="1" as="geometry">
            <mxPoint x="-1242.13" y="475.5" as="sourcePoint" />
            <mxPoint x="-1239.19" y="425.5" as="targetPoint" />
          </mxGeometry>
        </mxCell>
        <mxCell id="-HCXJBuDXDDv5yldLikC-401" value="" style="endArrow=classic;html=1;rounded=0;exitX=0;exitY=1;exitDx=0;exitDy=0;" edge="1" parent="1" source="-HCXJBuDXDDv5yldLikC-399" target="-HCXJBuDXDDv5yldLikC-403">
          <mxGeometry width="50" height="50" relative="1" as="geometry">
            <mxPoint x="-1249.19" y="475.5" as="sourcePoint" />
            <mxPoint x="-1265.0723529411766" y="537.8529411764707" as="targetPoint" />
          </mxGeometry>
        </mxCell>
        <mxCell id="-HCXJBuDXDDv5yldLikC-402" value="rating&amp;nbsp;" style="ellipse;whiteSpace=wrap;html=1;" vertex="1" parent="1">
          <mxGeometry x="-1320" y="430" width="60" height="40" as="geometry" />
        </mxCell>
        <mxCell id="-HCXJBuDXDDv5yldLikC-403" value="id" style="ellipse;whiteSpace=wrap;html=1;fontStyle=4;fontColor=#e91616;" vertex="1" parent="1">
          <mxGeometry x="-1330" y="530" width="54.12" height="40" as="geometry" />
        </mxCell>
        <mxCell id="-HCXJBuDXDDv5yldLikC-404" value="" style="endArrow=classic;html=1;rounded=0;exitX=0.703;exitY=1.044;exitDx=0;exitDy=0;exitPerimeter=0;" edge="1" parent="1" source="-HCXJBuDXDDv5yldLikC-399" target="-HCXJBuDXDDv5yldLikC-405">
          <mxGeometry width="50" height="50" relative="1" as="geometry">
            <mxPoint x="-1217.3100000000002" y="512.5" as="sourcePoint" />
            <mxPoint x="-1243.3123529411766" y="544.8529411764707" as="targetPoint" />
          </mxGeometry>
        </mxCell>
        <mxCell id="-HCXJBuDXDDv5yldLikC-405" value="Vendor&amp;nbsp;&lt;br&gt;id" style="ellipse;whiteSpace=wrap;html=1;fontStyle=0;fontColor=#290dfd;" vertex="1" parent="1">
          <mxGeometry x="-1260" y="539" width="93.37" height="45" as="geometry" />
        </mxCell>
        <mxCell id="-HCXJBuDXDDv5yldLikC-406" value="" style="endArrow=classic;html=1;rounded=0;exitX=0.554;exitY=-0.07;exitDx=0;exitDy=0;exitPerimeter=0;" edge="1" parent="1" source="-HCXJBuDXDDv5yldLikC-399" target="-HCXJBuDXDDv5yldLikC-407">
          <mxGeometry width="50" height="50" relative="1" as="geometry">
            <mxPoint x="-1192.89" y="525.5" as="sourcePoint" />
            <mxPoint x="-1169.95" y="505.5" as="targetPoint" />
          </mxGeometry>
        </mxCell>
        <mxCell id="-HCXJBuDXDDv5yldLikC-407" value="user_id" style="ellipse;whiteSpace=wrap;html=1;fontColor=#2b00ff;" vertex="1" parent="1">
          <mxGeometry x="-1230" y="410" width="60" height="40" as="geometry" />
        </mxCell>
        <mxCell id="-HCXJBuDXDDv5yldLikC-408" value="" style="endArrow=none;html=1;rounded=0;entryX=0;entryY=0.5;entryDx=0;entryDy=0;exitX=1;exitY=0;exitDx=0;exitDy=0;" edge="1" parent="1" source="-HCXJBuDXDDv5yldLikC-399" target="-HCXJBuDXDDv5yldLikC-409">
          <mxGeometry width="50" height="50" relative="1" as="geometry">
            <mxPoint x="-1180" y="500" as="sourcePoint" />
            <mxPoint x="-1212.24" y="448" as="targetPoint" />
          </mxGeometry>
        </mxCell>
        <mxCell id="-HCXJBuDXDDv5yldLikC-409" value="" style="rhombus;whiteSpace=wrap;html=1;rotation=-30;" vertex="1" parent="1">
          <mxGeometry x="-1140" y="405" width="60" height="40" as="geometry" />
        </mxCell>
        <mxCell id="-HCXJBuDXDDv5yldLikC-410" value="" style="endArrow=none;html=1;rounded=0;entryX=0;entryY=0.5;entryDx=0;entryDy=0;exitX=1;exitY=0.5;exitDx=0;exitDy=0;" edge="1" parent="1" source="-HCXJBuDXDDv5yldLikC-409" target="-HCXJBuDXDDv5yldLikC-1">
          <mxGeometry width="50" height="50" relative="1" as="geometry">
            <mxPoint x="-1136.42" y="475.25" as="sourcePoint" />
            <mxPoint x="-1062.94" y="404.75" as="targetPoint" />
          </mxGeometry>
        </mxCell>
        <mxCell id="-HCXJBuDXDDv5yldLikC-411" value="" style="rhombus;whiteSpace=wrap;html=1;rotation=0;" vertex="1" parent="1">
          <mxGeometry x="-1390" y="462.5" width="60" height="40" as="geometry" />
        </mxCell>
        <mxCell id="-HCXJBuDXDDv5yldLikC-412" value="" style="endArrow=none;html=1;rounded=0;entryX=0;entryY=0.5;entryDx=0;entryDy=0;exitX=1;exitY=0.25;exitDx=0;exitDy=0;" edge="1" parent="1" source="-HCXJBuDXDDv5yldLikC-163" target="-HCXJBuDXDDv5yldLikC-411">
          <mxGeometry width="50" height="50" relative="1" as="geometry">
            <mxPoint x="-1480" y="763.75" as="sourcePoint" />
            <mxPoint x="-1396.52" y="703.25" as="targetPoint" />
          </mxGeometry>
        </mxCell>
        <mxCell id="-HCXJBuDXDDv5yldLikC-413" value="" style="endArrow=none;html=1;rounded=0;exitX=1;exitY=0.5;exitDx=0;exitDy=0;entryX=0;entryY=0.5;entryDx=0;entryDy=0;" edge="1" parent="1" source="-HCXJBuDXDDv5yldLikC-411" target="-HCXJBuDXDDv5yldLikC-399">
          <mxGeometry width="50" height="50" relative="1" as="geometry">
            <mxPoint x="-1367.24" y="769" as="sourcePoint" />
            <mxPoint x="-1290" y="550" as="targetPoint" />
          </mxGeometry>
        </mxCell>
        <mxCell id="-HCXJBuDXDDv5yldLikC-415" value="" style="endArrow=classic;html=1;rounded=0;exitX=1;exitY=1;exitDx=0;exitDy=0;" edge="1" parent="1" target="-HCXJBuDXDDv5yldLikC-416" source="-HCXJBuDXDDv5yldLikC-399">
          <mxGeometry width="50" height="50" relative="1" as="geometry">
            <mxPoint x="-1149.3600000000001" y="455.5" as="sourcePoint" />
            <mxPoint x="-1154.5423529411764" y="473.8529411764707" as="targetPoint" />
          </mxGeometry>
        </mxCell>
        <mxCell id="-HCXJBuDXDDv5yldLikC-416" value="Description&amp;nbsp;" style="ellipse;whiteSpace=wrap;html=1;fontStyle=0;fontColor=#000000;" vertex="1" parent="1">
          <mxGeometry x="-1153.3600000000001" y="504.5" width="69.24" height="40" as="geometry" />
        </mxCell>
        <mxCell id="-HCXJBuDXDDv5yldLikC-418" value="" style="rhombus;whiteSpace=wrap;html=1;rotation=-30;" vertex="1" parent="1">
          <mxGeometry x="-1283" y="655" width="60" height="35" as="geometry" />
        </mxCell>
        <mxCell id="-HCXJBuDXDDv5yldLikC-419" value="" style="endArrow=none;html=1;rounded=0;exitX=0.989;exitY=0.352;exitDx=0;exitDy=0;exitPerimeter=0;entryX=0;entryY=0.5;entryDx=0;entryDy=0;" edge="1" parent="1" source="-HCXJBuDXDDv5yldLikC-196" target="-HCXJBuDXDDv5yldLikC-418">
          <mxGeometry width="50" height="50" relative="1" as="geometry">
            <mxPoint x="-1450" y="780" as="sourcePoint" />
            <mxPoint x="-1269" y="681" as="targetPoint" />
          </mxGeometry>
        </mxCell>
        <mxCell id="-HCXJBuDXDDv5yldLikC-420" value="" style="endArrow=none;html=1;rounded=0;entryX=0;entryY=0.5;entryDx=0;entryDy=0;exitX=1;exitY=0.5;exitDx=0;exitDy=0;" edge="1" parent="1" source="-HCXJBuDXDDv5yldLikC-418" target="-HCXJBuDXDDv5yldLikC-385">
          <mxGeometry width="50" height="50" relative="1" as="geometry">
            <mxPoint x="-1220" y="670" as="sourcePoint" />
            <mxPoint x="-1200" y="640" as="targetPoint" />
          </mxGeometry>
        </mxCell>
        <mxCell id="-HCXJBuDXDDv5yldLikC-422" value="M" style="text;strokeColor=none;align=center;fillColor=none;html=1;verticalAlign=middle;whiteSpace=wrap;rounded=0;" vertex="1" parent="1">
          <mxGeometry x="-1260" y="630" width="60" height="30" as="geometry" />
        </mxCell>
        <mxCell id="-HCXJBuDXDDv5yldLikC-424" value="1" style="text;strokeColor=none;align=center;fillColor=none;html=1;verticalAlign=middle;whiteSpace=wrap;rounded=0;" vertex="1" parent="1">
          <mxGeometry x="-1330" y="664" width="60" height="30" as="geometry" />
        </mxCell>
        <mxCell id="-HCXJBuDXDDv5yldLikC-425" value="M" style="text;strokeColor=none;align=center;fillColor=none;html=1;verticalAlign=middle;whiteSpace=wrap;rounded=0;" vertex="1" parent="1">
          <mxGeometry x="-1050" y="522" width="60" height="30" as="geometry" />
        </mxCell>
        <mxCell id="-HCXJBuDXDDv5yldLikC-426" value="1" style="text;strokeColor=none;align=center;fillColor=none;html=1;verticalAlign=middle;whiteSpace=wrap;rounded=0;" vertex="1" parent="1">
          <mxGeometry x="-1016.08" y="470" width="60" height="30" as="geometry" />
        </mxCell>
        <mxCell id="-HCXJBuDXDDv5yldLikC-427" value="1" style="text;strokeColor=none;align=center;fillColor=none;html=1;verticalAlign=middle;whiteSpace=wrap;rounded=0;" vertex="1" parent="1">
          <mxGeometry x="-1120" y="380" width="60" height="30" as="geometry" />
        </mxCell>
        <mxCell id="-HCXJBuDXDDv5yldLikC-428" value="M" style="text;strokeColor=none;align=center;fillColor=none;html=1;verticalAlign=middle;whiteSpace=wrap;rounded=0;" vertex="1" parent="1">
          <mxGeometry x="-1170.76" y="400" width="60" height="30" as="geometry" />
        </mxCell>
        <mxCell id="-HCXJBuDXDDv5yldLikC-429" value="1" style="text;strokeColor=none;align=center;fillColor=none;html=1;verticalAlign=middle;whiteSpace=wrap;rounded=0;" vertex="1" parent="1">
          <mxGeometry x="-1412.94" y="450" width="60" height="30" as="geometry" />
        </mxCell>
        <mxCell id="-HCXJBuDXDDv5yldLikC-430" value="M" style="text;strokeColor=none;align=center;fillColor=none;html=1;verticalAlign=middle;whiteSpace=wrap;rounded=0;" vertex="1" parent="1">
          <mxGeometry x="-1360" y="450" width="60" height="30" as="geometry" />
        </mxCell>
        <mxCell id="-HCXJBuDXDDv5yldLikC-431" value="1" style="text;strokeColor=none;align=center;fillColor=none;html=1;verticalAlign=middle;whiteSpace=wrap;rounded=0;" vertex="1" parent="1">
          <mxGeometry x="-1452.94" y="350" width="60" height="30" as="geometry" />
        </mxCell>
        <mxCell id="-HCXJBuDXDDv5yldLikC-432" value="M" style="text;strokeColor=none;align=center;fillColor=none;html=1;verticalAlign=middle;whiteSpace=wrap;rounded=0;" vertex="1" parent="1">
          <mxGeometry x="-1410" y="325" width="60" height="30" as="geometry" />
        </mxCell>
        <mxCell id="-HCXJBuDXDDv5yldLikC-433" value="1" style="text;strokeColor=none;align=center;fillColor=none;html=1;verticalAlign=middle;whiteSpace=wrap;rounded=0;" vertex="1" parent="1">
          <mxGeometry x="-1580" y="590" width="60" height="30" as="geometry" />
        </mxCell>
        <mxCell id="-HCXJBuDXDDv5yldLikC-434" value="M" style="text;strokeColor=none;align=center;fillColor=none;html=1;verticalAlign=middle;whiteSpace=wrap;rounded=0;" vertex="1" parent="1">
          <mxGeometry x="-1580" y="647.5" width="60" height="30" as="geometry" />
        </mxCell>
        <mxCell id="-HCXJBuDXDDv5yldLikC-435" value="1" style="text;strokeColor=none;align=center;fillColor=none;html=1;verticalAlign=middle;whiteSpace=wrap;rounded=0;" vertex="1" parent="1">
          <mxGeometry x="-1548.82" y="927.5" width="60" height="30" as="geometry" />
        </mxCell>
        <mxCell id="-HCXJBuDXDDv5yldLikC-436" value="M" style="text;strokeColor=none;align=center;fillColor=none;html=1;verticalAlign=middle;whiteSpace=wrap;rounded=0;" vertex="1" parent="1">
          <mxGeometry x="-1548.82" y="877.5" width="60" height="30" as="geometry" />
        </mxCell>
        <mxCell id="-HCXJBuDXDDv5yldLikC-437" value="1" style="text;strokeColor=none;align=center;fillColor=none;html=1;verticalAlign=middle;whiteSpace=wrap;rounded=0;" vertex="1" parent="1">
          <mxGeometry x="-1360" y="1070" width="60" height="30" as="geometry" />
        </mxCell>
        <mxCell id="-HCXJBuDXDDv5yldLikC-438" value="M" style="text;strokeColor=none;align=center;fillColor=none;html=1;verticalAlign=middle;whiteSpace=wrap;rounded=0;" vertex="1" parent="1">
          <mxGeometry x="-1412.94" y="1070" width="60" height="30" as="geometry" />
        </mxCell>
        <mxCell id="-HCXJBuDXDDv5yldLikC-440" value="1" style="text;strokeColor=none;align=center;fillColor=none;html=1;verticalAlign=middle;whiteSpace=wrap;rounded=0;" vertex="1" parent="1">
          <mxGeometry x="-1343" y="828.75" width="60" height="30" as="geometry" />
        </mxCell>
        <mxCell id="-HCXJBuDXDDv5yldLikC-441" value="M" style="text;strokeColor=none;align=center;fillColor=none;html=1;verticalAlign=middle;whiteSpace=wrap;rounded=0;" vertex="1" parent="1">
          <mxGeometry x="-1275.8799999999999" y="828.75" width="60" height="30" as="geometry" />
        </mxCell>
        <mxCell id="-HCXJBuDXDDv5yldLikC-442" value="1" style="text;strokeColor=none;align=center;fillColor=none;html=1;verticalAlign=middle;whiteSpace=wrap;rounded=0;" vertex="1" parent="1">
          <mxGeometry x="-877.06" y="750" width="60" height="30" as="geometry" />
        </mxCell>
        <mxCell id="-HCXJBuDXDDv5yldLikC-443" value="M" style="text;strokeColor=none;align=center;fillColor=none;html=1;verticalAlign=middle;whiteSpace=wrap;rounded=0;" vertex="1" parent="1">
          <mxGeometry x="-948.8199999999999" y="760" width="60" height="30" as="geometry" />
        </mxCell>
        <mxCell id="-HCXJBuDXDDv5yldLikC-444" value="M" style="text;strokeColor=none;align=center;fillColor=none;html=1;verticalAlign=middle;whiteSpace=wrap;rounded=0;" vertex="1" parent="1">
          <mxGeometry x="-747.06" y="937.5" width="60" height="30" as="geometry" />
        </mxCell>
        <mxCell id="-HCXJBuDXDDv5yldLikC-445" value="1" style="text;strokeColor=none;align=center;fillColor=none;html=1;verticalAlign=middle;whiteSpace=wrap;rounded=0;" vertex="1" parent="1">
          <mxGeometry x="-747.06" y="1000" width="60" height="30" as="geometry" />
        </mxCell>
        <mxCell id="-HCXJBuDXDDv5yldLikC-446" value="1" style="text;strokeColor=none;align=center;fillColor=none;html=1;verticalAlign=middle;whiteSpace=wrap;rounded=0;" vertex="1" parent="1">
          <mxGeometry x="-550" y="745" width="60" height="30" as="geometry" />
        </mxCell>
        <mxCell id="-HCXJBuDXDDv5yldLikC-447" value="1" style="text;strokeColor=none;align=center;fillColor=none;html=1;verticalAlign=middle;whiteSpace=wrap;rounded=0;" vertex="1" parent="1">
          <mxGeometry x="-464.13" y="745" width="60" height="30" as="geometry" />
        </mxCell>
        <mxCell id="-HCXJBuDXDDv5yldLikC-448" value="M" style="text;strokeColor=none;align=center;fillColor=none;html=1;verticalAlign=middle;whiteSpace=wrap;rounded=0;" vertex="1" parent="1">
          <mxGeometry x="-251.19000000000005" y="836.25" width="60" height="30" as="geometry" />
        </mxCell>
        <mxCell id="-HCXJBuDXDDv5yldLikC-449" value="1" style="text;strokeColor=none;align=center;fillColor=none;html=1;verticalAlign=middle;whiteSpace=wrap;rounded=0;" vertex="1" parent="1">
          <mxGeometry x="-251.19000000000005" y="893.75" width="60" height="30" as="geometry" />
        </mxCell>
        <mxCell id="-HCXJBuDXDDv5yldLikC-450" value="M" style="text;strokeColor=none;align=center;fillColor=none;html=1;verticalAlign=middle;whiteSpace=wrap;rounded=0;" vertex="1" parent="1">
          <mxGeometry x="-251.19000000000005" y="996.25" width="60" height="30" as="geometry" />
        </mxCell>
        <mxCell id="-HCXJBuDXDDv5yldLikC-451" value="1" style="text;strokeColor=none;align=center;fillColor=none;html=1;verticalAlign=middle;whiteSpace=wrap;rounded=0;" vertex="1" parent="1">
          <mxGeometry x="-251.19000000000005" y="1050" width="60" height="30" as="geometry" />
        </mxCell>
      </root>
    </mxGraphModel>
  </diagram>
</mxfile>
